<svg enable-background="new 0 0 500 500" version="1.1" viewBox="0 0 500 500" xml:space="preserve" xmlns="http://www.w3.org/2000/svg">

<g>
		
			
				
					
						<rect x="189.56" y="364.74" width="130.88" height="90.528" fill="#342f66"/>
					
					
						<path d="m411.64 412.74h-313.29c-4.305 0-7.794-3.49-7.794-7.794v-181.99c0-4.305 3.49-7.795 7.794-7.795h313.29c4.305 0 7.794 3.49 7.794 7.795v181.99c0 4.305-3.489 7.794-7.794 7.794z" fill="#54548e"/>
					
					
						<rect x="180.29" y="450.11" width="149.42" height="11.41" fill="#54548e"/>
					
				
				
					<path d="m399.15 402.42h-288.3c-3.961 0-7.173-3.211-7.173-7.173v-161.36c0-3.961 3.211-7.173 7.173-7.173h288.3c3.961 0 7.173 3.211 7.173 7.173v161.37c0 3.961-3.211 7.172-7.173 7.172z" fill="#d0d0f4"/>
				
			
		
	
		
			
				<polygon points="372.34 414.76 129.88 414.76 129.88 80.457 372.34 80.457 372.34 156.93 422.4 156.93 422.4 302.76 372.34 302.76" fill="none" stroke="#342f66" stroke-dasharray="2.3109, 6.9328" stroke-linecap="round" stroke-linejoin="round" stroke-miterlimit="10" stroke-width="1.5406"/>
		
		
			<rect x="149.87" y="98.802" width="205.46" height="299.1" fill="#fff" stroke="#342f66" stroke-linecap="round" stroke-linejoin="round" stroke-miterlimit="10" stroke-width="1.5252"/>
		
			
				<rect x="164.29" y="111.52" width="174.86" height="29.583" fill="#d0d0f4"/>
			
			
				<rect x="164.29" y="320.63" width="174.86" height="60.814" fill="#d0d0f4"/>
			
			
				<rect x="164.29" y="153.34" width="42.952" height="155.06" fill="#d0d0f4"/>
			
			
				<rect x="221.85" y="153.34" width="117.29" height="71.414" fill="#d0d0f4"/>
			
			
				<rect x="221.85" y="236.98" width="117.29" height="71.414" fill="#d0d0f4"/>
			
		
		
			
				<path d="m174.06 246.84h-88.355c-4.838 0-8.76-3.922-8.76-8.76v-50.441c0-4.838 3.922-8.76 8.76-8.76h88.355c4.838 0 8.76 3.922 8.76 8.76v50.441c0 4.838-3.922 8.76-8.76 8.76z" fill="#342f66"/>
			
			<path d="m128.8 197.5c-6.6667 0-10.833 3.3333-12.5 10 2.5-3.3333 5.4167-4.5833 8.75-3.75 1.9018 0.47546 3.2612 1.8552 4.7658 3.3825 2.4511 2.488 5.288 5.3675 11.484 5.3675 6.6667 0 10.833-3.3333 12.5-10-2.5 3.3333-5.4167 4.5833-8.75 3.75-1.9018-0.47546-3.2612-1.8552-4.7658-3.3825-2.4511-2.488-5.288-5.3675-11.484-5.3675zm-12.5 15c-6.6667 0-10.833 3.3333-12.5 10 2.5-3.3333 5.4167-4.5833 8.75-3.75 1.9018 0.47546 3.2612 1.8552 4.7658 3.3825 2.4511 2.488 5.288 5.3675 11.484 5.3675 6.6667 0 10.833-3.3333 12.5-10-2.5 3.3333-5.4167 4.5833-8.75 3.75-1.9018-0.47546-3.2612-1.8552-4.7658-3.3825-2.4511-2.488-5.288-5.3675-11.484-5.3675z" fill="#fff" stroke-width=".19531"/>
		
		
			<path d="m150.33 90.084c0-0.014 2e-3 -0.028 2e-3 -0.043 0-9.972-8.084-18.056-18.056-18.056-7.634 0-14.148 4.745-16.789 11.441-1.848-0.995-3.961-1.562-6.208-1.562-7.244 0-13.116 5.872-13.116 13.116s5.872 13.116 13.116 13.116h40.201c4.986 0 9.028-4.042 9.028-9.028 0-4.698-3.591-8.555-8.178-8.984z" fill="#fff" stroke="#54548e" stroke-linecap="round" stroke-linejoin="round" stroke-miterlimit="10" stroke-width="1.9691"/>
		
			
				<circle cx="252.6" cy="80.457" r="39.91" fill="#342f66"/>
			
			<g fill="none" stroke="#fff" stroke-linecap="round" stroke-linejoin="round" stroke-miterlimit="10" stroke-width="2.2792">
				
					<polyline points="263.65 70.594 276.38 81.421 262.92 92.247"/>
				
					<line x1="257.54" x2="247.87" y1="70.594" y2="92.247"/>
				
					<polyline points="241.55 70.594 228.82 81.421 242.28 92.247"/>
			</g>
		
		
			
				<circle cx="372.34" cy="156.93" r="25.2" fill="#fff" stroke="#342f66" stroke-linecap="round" stroke-linejoin="round" stroke-miterlimit="10" stroke-width="1.5252"/>
			
				<path d="m388.86 160.12v-6.38c0-0.828-0.671-1.499-1.499-1.499h-2.199c-0.132-0.36-0.277-0.713-0.437-1.058l1.554-1.554c0.585-0.585 0.585-1.534 0-2.119l-4.511-4.511c-0.585-0.585-1.534-0.585-2.119 0l-1.554 1.554c-0.345-0.161-0.698-0.305-1.058-0.437v-2.199c0-0.828-0.671-1.498-1.499-1.498h-6.38c-0.828 0-1.499 0.671-1.499 1.498v2.199c-0.36 0.132-0.713 0.277-1.058 0.437l-1.554-1.554c-0.585-0.585-1.534-0.585-2.119 0l-4.511 4.511c-0.585 0.585-0.585 1.534 0 2.119l1.554 1.554c-0.161 0.345-0.305 0.698-0.437 1.058h-2.199c-0.828 0-1.499 0.671-1.499 1.499v6.38c0 0.828 0.671 1.499 1.499 1.499h2.199c0.132 0.36 0.276 0.713 0.437 1.058l-1.554 1.554c-0.585 0.585-0.585 1.534 0 2.119l4.511 4.511c0.585 0.585 1.534 0.585 2.119 0l1.554-1.554c0.345 0.161 0.698 0.305 1.058 0.437v2.199c0 0.828 0.671 1.499 1.499 1.499h6.38c0.828 0 1.499-0.671 1.499-1.499v-2.199c0.36-0.132 0.713-0.277 1.058-0.437l1.554 1.554c0.585 0.585 1.534 0.585 2.119 0l4.511-4.511c0.585-0.585 0.585-1.534 0-2.119l-1.554-1.554c0.161-0.345 0.305-0.698 0.437-1.058h2.199c0.828-1e-3 1.499-0.672 1.499-1.499zm-7.663-4.71c1.008 6.142-4.227 11.376-10.368 10.369-3.719-0.61-6.719-3.61-7.329-7.329-1.007-6.142 4.227-11.376 10.368-10.369 3.719 0.61 6.719 3.61 7.329 7.329z" fill="#342f66"/>
			
			
				<circle cx="372.34" cy="156.93" r="4.113" fill="#342f66"/>
			
		
		
			
				<path d="m428.3 311.35h-144.94c-2.623 0-4.749-2.126-4.749-4.749v-51.56c0-2.623 2.126-4.749 4.749-4.749h144.94c2.623 0 4.749 2.126 4.749 4.749v51.56c0 2.623-2.126 4.749-4.749 4.749z" fill="#fff" stroke="#54548e" stroke-linecap="round" stroke-linejoin="round" stroke-miterlimit="10" stroke-width="1.5406"/>
			
				
					<path d="m422.19 301.54h-74.814c-0.535 0-0.969-0.434-0.969-0.969v-0.052c0-0.535 0.434-0.969 0.969-0.969h74.814c0.535 0 0.969 0.434 0.969 0.969v0.052c0 0.535-0.434 0.969-0.969 0.969z" fill="#d0d0f4"/>
				
				
					<path d="m422.19 295h-74.814c-0.535 0-0.969-0.434-0.969-0.969v-0.052c0-0.535 0.434-0.969 0.969-0.969h74.814c0.535 0 0.969 0.434 0.969 0.969v0.052c0 0.535-0.434 0.969-0.969 0.969z" fill="#d0d0f4"/>
				
				
					<path d="m422.19 288.47h-74.814c-0.535 0-0.969-0.434-0.969-0.969v-0.052c0-0.535 0.434-0.969 0.969-0.969h74.814c0.535 0 0.969 0.434 0.969 0.969v0.052c0 0.535-0.434 0.969-0.969 0.969z" fill="#d0d0f4"/>
				
				
					<path d="m422.19 281.93h-74.814c-0.535 0-0.969-0.434-0.969-0.969v-0.052c0-0.535 0.434-0.969 0.969-0.969h74.814c0.535 0 0.969 0.434 0.969 0.969v0.052c0 0.535-0.434 0.969-0.969 0.969z" fill="#d0d0f4"/>
				
				
					<path d="m422.19 275.39h-74.814c-0.535 0-0.969-0.434-0.969-0.969v-0.052c0-0.535 0.434-0.969 0.969-0.969h74.814c0.535 0 0.969 0.434 0.969 0.969v0.052c0 0.535-0.434 0.969-0.969 0.969z" fill="#d0d0f4"/>
				
				
					<path d="m422.19 268.85h-74.814c-0.535 0-0.969-0.434-0.969-0.969v-0.052c0-0.535 0.434-0.969 0.969-0.969h74.814c0.535 0 0.969 0.434 0.969 0.969v0.052c0 0.536-0.434 0.969-0.969 0.969z" fill="#d0d0f4"/>
				
				
					<path d="m422.19 262.31h-74.814c-0.535 0-0.969-0.434-0.969-0.969v-0.052c0-0.535 0.434-0.969 0.969-0.969h74.814c0.535 0 0.969 0.434 0.969 0.969v0.052c0 0.535-0.434 0.969-0.969 0.969z" fill="#d0d0f4"/>
				
			
			
				
					<circle transform="matrix(.1801 -.9836 .9836 .1801 -21.836 536.09)" cx="310.67" cy="281.14" r="25.766" fill="#342f66"/>
			
			
				<path d="m292.56 295.25c4.111 5.526 10.69 9.107 18.107 9.107s13.996-3.581 18.107-9.107c-1.192-4.007-4.496-7.38-8.954-9.355 1.234-1.791 1.961-3.958 1.961-6.298 0-6.138-4.976-11.114-11.114-11.114s-11.114 4.976-11.114 11.114c0 2.339 0.726 4.507 1.961 6.298-4.458 1.975-7.762 5.348-8.954 9.355z" fill="#fff"/>
			
		
		<g stroke-linecap="round" stroke-linejoin="round" stroke-miterlimit="10">
			
				
					<polygon points="120.39 407.1 120.39 350.89 164.64 350.89 172.08 357.43 172.08 407.1" fill="#fff" stroke="#342f66" stroke-width="1.41"/><g fill="none" stroke="#54548e" stroke-width="1.7666">
				
					<line x1="126.26" x2="158.09" y1="370.3" y2="370.3"/>
				
					<line x1="126.26" x2="158.09" y1="366.01" y2="366.01"/>
				
					<line x1="126.26" x2="158.09" y1="361.72" y2="361.72"/>
				
					<line x1="126.26" x2="158.09" y1="357.43" y2="357.43"/>
				
					</g><polygon points="164.64 350.89 164.64 357.21 172.08 357.43" fill="#fff" stroke="#342f66" stroke-width="1.41"/>
			
			
				<path d="m164.96 383.13-5.361-6.757c-0.458-0.578-1.155-0.914-1.893-0.914h-45.547c-1.335 0-2.417 1.082-2.417 2.417v47.831c0 1.335 1.082 2.417 2.417 2.417h65.128c1.335 0 2.417-1.082 2.417-2.417v-39.245c0-1.335-1.082-2.417-2.417-2.417h-10.433c-0.739 0-1.436-0.337-1.894-0.915z" fill="#fff" stroke="#342f66" stroke-width="1.5252"/>
		</g>
		
			
				<path d="m400.92 389.51h-65.158c-3.479 0-6.3 2.821-6.3 6.3v36.188c0 3.479 2.821 6.3 6.3 6.3h22.048l-4.724 8.611c-0.643 1.172 0.699 2.43 1.827 1.712l16.231-10.324h29.777c3.479 0 6.3-2.821 6.3-6.3v-36.188c-1e-3 -3.479-2.822-6.299-6.301-6.299z" fill="#342f66"/>
			
			
				<path d="m352.2 414.34c0 2.803-2.273 5.076-5.076 5.076s-5.076-2.272-5.076-5.076c0-2.803 2.273-5.076 5.076-5.076s5.076 2.273 5.076 5.076z" fill="#fff"/>
			
			
				<path d="m373.42 414.34c0 2.803-2.273 5.076-5.076 5.076s-5.076-2.272-5.076-5.076c0-2.803 2.273-5.076 5.076-5.076s5.076 2.273 5.076 5.076z" fill="#fff"/>
			
			
				<path d="m394.64 414.34c0 2.803-2.273 5.076-5.076 5.076s-5.076-2.272-5.076-5.076c0-2.803 2.273-5.076 5.076-5.076s5.076 2.273 5.076 5.076z" fill="#fff"/>
			
		
	<g transform="matrix(.75 0 0 .75 101.94 69.484)" fill="#342f66"><path d="m12 26h40v13.333h-20v2.223h-8.889v-2.223h-11.111zm2.222 11.111h4.445v-6.667h2.222v6.667h2.222v-8.889h-8.889v8.89zm11.111-8.889v11.111h4.445v-2.222h4.444v-8.889zm4.445 2.222h2.222v4.445h-2.222zm6.666-2.222v8.89h4.445v-6.668h2.222v6.667h2.222v-6.667h2.223v6.667h2.222v-8.889z" fill="#342f66"/></g></g>
</svg>
