<svg version="1.1" viewBox="0 0 600 350" xml:space="preserve" xmlns="http://www.w3.org/2000/svg" xmlns:xlink="http://www.w3.org/1999/xlink"><defs><linearGradient id="a" x1="43.385" x2="503.89" y1="175.54" y2="175.54" gradientTransform="translate(2.7397 14.53)" gradientUnits="userSpaceOnUse"><stop stop-color="#737e8c" offset="0"/><stop stop-color="#c65370" offset="1"/></linearGradient></defs><g transform="matrix(.7978 0 0 .7978 60.66 35.385)"><g stroke-width="0"><path d="m43.385 39.481 87.668 270.31 378.37 33.953-2.7903-115.07-239.82-206.8z" fill="url(#a)" opacity=".3" stroke-miterlimit="20" style="font-variation-settings:'wght' 700;paint-order:markers fill stroke"/><path transform="matrix(1.2534 0 0 1.2534 -24.32 -772.76)" d="m230.08 616.37h-196.52c-0.03725 0.63127-0.05852 1.2669-0.05852 1.9076 1.19e-4 13.21 8.1663 25.044 20.516 29.732 4.3151 24.237 33.352 34.587 52.025 18.543 5.0288 9.2255 14.29 15.372 24.744 16.422l-0.20362 85.176h8.6277l-0.15796-85.424c4.9748-0.80095 9.6863-2.7787 13.742-5.7686 8.0774 8.5724 20.232 11.977 31.587 8.8479 11.355-3.1291 20.05-12.279 22.596-23.779 21.102-3.5686 32.726-26.543 23.102-45.658z" fill="#c65370"/><path transform="matrix(1.2534 0 0 1.2534 -24.32 -772.76)" d="m183.46 814.73 122.83-2.0671 0.70408 7.3229-127.15 2.5812z" fill="#c65370" stroke-miterlimit="20" style="font-variation-settings:'wght' 700;paint-order:markers fill stroke"/><g transform="matrix(.97921 -.0042541 .0042541 .97921 80.027 186.34)"><path d="m111.88 21.542-44.347 15-0.56943 54.639 45.458 14.667a64 64 0 0 0 15.583-41.847 64 64 0 0 0-16.125-42.458z" fill="#c65370" stroke-width="0"/><path d="m98.056 9.8472-49.472 16.736 0.2779 77.181 48.292 14.875a64 64 0 0 0 15.264-12.792l-45.458-14.667 0.56943-54.639 44.347-15a64 64 0 0 0-13.82-11.694z" fill="#fff"/><path d="m64 5.2801e-6a64 64 0 0 0-64 64 64 64 0 0 0 64 64 64 64 0 0 0 33.153-9.3611l-48.292-14.875-0.2779-77.181 49.472-16.736a64 64 0 0 0-34.055-9.8472z" fill="#c65370" stroke-width="0"/></g></g><g transform="matrix(.57115 0 0 .57115 263.02 -21.858)"><g fill="#c65370"><path transform="translate(-202.94 -124.08)" d="m595.7 659.15a14.096 14.096 0 0 1-1.5002-0.0801l-114.98-12.277a6.4997 6.4997 0 0 1-5.7732-7.1533l1.5671-14.676 0.49707 0.0532-0.49707-0.0532a6.5074 6.5074 0 0 1 7.1531-5.773l114.98 12.277a13.881 13.881 0 0 1-1.4468 27.683z"/><path transform="translate(-202.94 -124.08)" d="m538.02 763.96h-123.01a6.5074 6.5074 0 0 1-6.5-6.5v-14.759a6.5074 6.5074 0 0 1 6.5-6.5h123.01a6.5074 6.5074 0 0 1 6.5 6.5v14.759a6.5074 6.5074 0 0 1-6.5 6.5z"/><path transform="translate(-202.94 -124.08)" d="m600.42 758.87a6.4887 6.4887 0 0 1-2.0447-0.33105l-116.81-38.569a6.5074 6.5074 0 0 1-4.1345-8.21l4.6277-14.015 0.47485 0.15674-0.47485-0.15674a6.5 6.5 0 0 1 8.2102-4.1343l116.81 38.569a6.5074 6.5074 0 0 1 4.1345 8.21l-4.6277 14.016a6.5092 6.5092 0 0 1-6.1655 4.4648z"/><path transform="translate(-202.94 -124.08)" d="m445.85 764.18q-0.17138 0-0.34375-9e-3a6.4557 6.4557 0 0 1-4.4917-2.1387l-9.8835-10.961a6.5078 6.5078 0 0 1 0.47461-9.1802l52.425-47.269a6.501 6.501 0 0 1 9.1802 0.47461l9.8836 10.962a6.5078 6.5078 0 0 1-0.47461 9.1802l-52.425 47.269a6.4533 6.4533 0 0 1-4.3448 1.6729z"/><circle cx="406.54" cy="417.62" r="51"/></g><path transform="translate(-202.94 -124.08)" d="m634.36 764.19h-108.12a6.4861 6.4861 0 0 1-5.6294-9.75l83.241-144.18a6.5002 6.5002 0 0 1 11.259 0l54.061 93.636a40.194 40.194 0 0 1-34.809 60.291z" fill="#737e8c"/><g fill="#2f2e41"><path transform="translate(-202.94 -124.08)" d="m567.44 561.1c-3.3059-0.0918-7.4202-0.20654-10.59-2.522a8.1339 8.1339 0 0 1-3.2002-6.0723 5.4712 5.4712 0 0 1 1.8604-4.4936c1.6553-1.3994 4.0725-1.727 6.6782-0.96143l-2.6992-19.726 1.9814-0.27149 3.1733 23.19-1.6545-0.75927c-1.9185-0.87989-4.5518-1.3272-6.1882 0.0552a3.5154 3.5154 0 0 0-1.1526 2.8955 6.1475 6.1475 0 0 0 2.3811 4.5278c2.4668 1.8018 5.7463 2.0342 9.4658 2.1382z"/><rect x="369.98" y="404.95" width="10.772" height="2"/><path transform="translate(-202.94 -124.08)" d="m639.72 481.54a42.233 42.233 0 0 1 21.246-27.278 40.882 40.882 0 0 1 35.083-1.0886 40.417 40.417 0 0 1 23.244 27.143 42.153 42.153 0 0 1 0.64008 18.489 47.958 47.958 0 0 1-8.0982 18.002c-3.9508 5.7209-8.5952 10.913-12.859 16.394a152 152 0 0 0-11.666 17.3 153.07 153.07 0 0 0-19.574 59.127 91.18 91.18 0 0 0-0.45936 18.984c1.1484 12.286 5.908 24.32 16.833 31.005 5.8082 3.5543 12.511 5.3897 19.142 6.6736a87.126 87.126 0 0 0 22.657 1.7705c12.843-0.91272 25.695-6.2723 33.154-17.187a30.621 30.621 0 0 0 3.8379-7.885c0.59406-1.8417-2.3016-2.6304-2.8928-0.79752-3.9506 12.248-15.94 19.797-28.074 22.099a68.674 68.674 0 0 1-22.826-0.0223c-6.8623-1.0246-13.934-2.443-20.224-5.4712a30.284 30.284 0 0 1-13.559-12.535 44.192 44.192 0 0 1-4.9945-17.088c-1.3366-13.084 0.84031-26.629 4.1-39.285a151.2 151.2 0 0 1 15.899-38.613 148.49 148.49 0 0 1 11.814-17.286c4.2973-5.4174 8.8817-10.627 12.757-16.366a49.304 49.304 0 0 0 7.9251-18.022 45.676 45.676 0 0 0-0.32554-18.785 43.288 43.288 0 0 0-21.891-28.775c-10.808-5.7012-23.976-7.0663-35.537-2.8652a45.386 45.386 0 0 0-25.41 23.375 43.268 43.268 0 0 0-2.8351 8.1899c-0.44179 1.8777 2.4501 2.6791 2.8928 0.79752z"/><path transform="translate(-202.94 -124.08)" d="m649.46 483.98a23.094 23.094 0 0 1 26.966-14.861c1.8781 0.43926 2.6797-2.4526 0.79752-2.8928a25.815 25.815 0 0 0-30.657 16.956c-0.62926 1.8296 2.2676 2.6154 2.8928 0.79752z"/><path transform="translate(-202.94 -124.08)" d="m644.86 498.15a5.4704 5.4704 0 0 1-2.1641-0.44677l-13.781-5.9233a5.5001 5.5001 0 1 1 4.3435-10.106l13.781 5.9233a5.5001 5.5001 0 0 1-2.1797 10.553z"/></g><path transform="translate(-202.94 -1052.8)" d="m624.68 1452.8-6.249-40.49c-0.26123-1.6929-2.8447-2.6994-5.77-2.248l-12.137 1.873c-2.9253 0.4516-5.0854 2.19-4.8242 3.883l5.9834 38.769a21.481 21.481 0 1 0 22.997-1.7869z" fill="#ccc"/><circle transform="translate(-202.94 -1052.8)" cx="614.56" cy="1471.8" r="9.46" fill="#ff6584"/><path transform="translate(-202.94 -1052.8)" d="m450.19 1587.7a11.943 11.943 0 0 1-7.8269-2.8984l-56.834-49.102a11.983 11.983 0 0 1-1.2334-16.902q0.28528-0.3303 0.59424-0.6392l58.88-58.88a11.982 11.982 0 0 1 16.947 0l52.968 52.967a11.997 11.997 0 0 1 0 16.947l-55.014 55.014a11.965 11.965 0 0 1-8.4805 3.4931zm-64.593-68.834 0.707 0.707c-0.17138 0.1714-0.33667 0.3496-0.49511 0.5327a9.9827 9.9827 0 0 0 1.0278 14.081l56.834 49.102a10.022 10.022 0 0 0 13.586-0.4951l55.014-55.014a9.9955 9.9955 0 0 0 0-14.119l-52.968-52.967a9.9825 9.9825 0 0 0-14.118 0l-58.88 58.88z" fill="#3f3d56"/><path transform="translate(-202.94 -1052.8)" d="m446.78 1570.1-45.981-41.848 52.948-52.948 43.914 43.914zm-43.084-41.916 43.019 39.152 48.118-48.118-41.086-41.086z" fill="#3f3d56"/><circle transform="translate(-202.94 -1052.8)" cx="450.25" cy="1522.2" r="24.611" fill="#ccc"/><path transform="translate(-202.94 -1052.8)" d="m462.35 1517.3c2.935 2.7577 3.0902 12.685-1.3911 17.454-4.4813 4.7693-11.902 2.5748-14.837-0.1829-2.935-2.7578-0.27265-5.0345 4.2087-9.8038 4.4814-4.7694 9.0846-10.225 12.02-7.4676z" fill="#fff"/><circle transform="translate(-202.94 -1052.8)" cx="437.36" cy="1522.6" r="7.2921" fill="#3f3d56"/><circle transform="translate(-202.94 -1052.8)" cx="450.47" cy="1508.6" r="7.2921" fill="#3f3d56"/><path transform="translate(-202.94 -1052.8)" d="m615.46 1704.6a6.5004 6.5004 0 0 1-6.468-5.9746l-9.3577-115.25a13.88 13.88 0 1 1 27.668-2.2465l9.3574 115.26a6.5078 6.5078 0 0 1-5.9524 7.0049l-14.711 1.1943c-0.17946 0.014-0.35866 0.022-0.53664 0.022z" fill="#c65370"/></g><rect transform="matrix(1.2534 0 0 1.2534 -76.034 -44.353)" x=".99548" y=".9955" width="598.01" height="348.01" fill-opacity="0" opacity=".4" stroke="#737e8c" stroke-dasharray="3.98199, 11.9459" stroke-linecap="square" stroke-linejoin="round" stroke-miterlimit="20" stroke-width="1.991" style="font-variation-settings:'wght' 700;paint-order:markers fill stroke"/><rect transform="matrix(1.2534 0 0 1.2534 -76.034 -44.353)" x="10.95" y="10.95" width="578.1" height="328.1" fill-opacity="0" opacity=".3" stroke="#737e8c" stroke-dasharray="3.80199, 11.406" stroke-linecap="square" stroke-linejoin="round" stroke-miterlimit="20" stroke-width="1.901" style="font-variation-settings:'wght' 700;paint-order:markers fill stroke"/></g></svg>
