<svg xmlns="http://www.w3.org/2000/svg" width="48" height="48" viewBox="0 0 12.7 12.7">
  <path d="M12.25 1.59 6.52 3.53l-.06 5.76 5.77 1.86c.3-.49.47-1.06.47-1.67V3.22c0-.6-.16-1.15-.44-1.63z"/>
  <path fill="#fff" d="M10.88.32 4.52 2.48l.03 8.13 6.08 1.88a3.22 3.22 0 0 0 1.6-1.34L6.46 9.29l.06-5.76 5.73-1.94c-.32-.55-.8-.99-1.37-1.27z"/>
  <path d="M3.22 0A3.22 3.22 0 0 0 0 3.22v6.26a3.22 3.22 0 0 0 3.22 3.22h6.26c.4 0 .8-.08 1.15-.21L4.55 10.6l-.03-8.13L10.88.32A3.2 3.2 0 0 0 9.48 0z"/>
</svg>
