<svg fill="#0f0f0f" className="graphic-logo" version="1.1" viewBox="0 0 432 432" xmlns="http://www.w3.org/2000/svg">
 <defs>
  <radialGradient id="radialGradient36-6" cx="98.484" cy="129.09" r="92.487" gradientTransform="matrix(2.3807 2.4174 -2.5614 2.5224 263.77 -349.45)" gradientUnits="userSpaceOnUse">
   <stop stop-color="#fff" offset=".28057"/>
   <stop stop-color="#fff" stop-opacity="0" offset=".86659"/>
  </radialGradient>
 </defs>
 <style type="text/css">{css}</style>
 <path transform="matrix(.10047 0 0 -.099539 -44.205 520.59)" d="m440 2734.5v-1522a322.5 322.5 135 0 1 322.5-322.5h3652a325.5 325.5 45 0 1 325.5 325.5v3692a322.5 322.5 135 0 1-322.5 322.5h-3652a325.5 325.5 45 0 1-325.5-325.5v-1519z"/>
 <path d="m389.3 14.64-248.89 95.598 0.84232 230 240.57 85.905 35.407-12.577 0.95575-20.428-223-90.378 2.4064-159.97 222.82-87.733-21.828-40.267z" fill="url(#radialGradient36-6)" stroke-width="1.34" style="font-variation-settings:'wdth' 75, 'wght' 900"/>
</svg>
