<svg width="360" height="40" version="1.1" viewBox="0 0 95.25 10.583" xml:space="preserve" xmlns="http://www.w3.org/2000/svg"><path d="m10.213 1.3239-4.7777 1.6143-0.04994 4.8007 4.8086 1.5515c0.24572-0.40486 0.3898-0.8783 0.3898-1.3865v-5.2247c0-0.49515-0.13667-0.95736-0.37082-1.3553z" stroke-width="0"/><path d="m9.0706 0.26989-5.3003 1.7932 0.02483 6.7807 5.0645 1.5609c0.5592-0.21389 1.0271-0.60883 1.3339-1.1143l-4.8086-1.5515 0.04994-4.8007 4.7777-1.6143c-0.26763-0.45481-0.66489-0.8225-1.142-1.054z" fill="#fff" stroke-width=".02189"/><g stroke-width="0"><path d="m2.6793-2.1498e-4c-1.4798 0-2.6793 1.1996-2.6793 2.6793v5.2247c0 1.4798 1.1996 2.6793 2.6793 2.6793h5.2247c0.33717 0 0.6585-0.06493 0.9557-0.17861l-5.0645-1.5609-0.02483-6.7807 5.3003-1.7932c-0.35304-0.17129-0.74781-0.2701-1.1666-0.2701h-5.2247z"/><path d="m15.24 0.77705v9.0289h-0.72554v-9.0289zm2.7781 0v0.66353h-6.2756v-0.66353zm6.9267 4.0432v0.66353h-4.8927v-0.66353zm-4.7315-4.0432v9.0289h-0.73794v-9.0289zm5.333 0v9.0289h-0.73174v-9.0289zm3.0882 0v9.0289h-0.73794v-9.0289zm2.3192 0h2.6603q0.85576 0 1.4759 0.31006 0.62012 0.30386 0.96118 0.89917 0.34106 0.58911 0.34106 1.4511 0 0.63872-0.24184 1.1596-0.24185 0.5209-0.66973 0.86816-0.42168 0.34727-0.99219 0.47749l-0.24185 0.10542h-2.8029l-0.0124-0.66353h2.3192q0.63872 0 1.0604-0.27285 0.42788-0.27285 0.63872-0.71934 0.21084-0.44648 0.21084-0.95498 0-0.61392-0.23564-1.0604-0.22945-0.45269-0.68833-0.69453-0.45889-0.24185-1.1224-0.24185h-1.9286v8.3654h-0.73174zm5.0105 9.0289-2.1022-4.037 0.78755-0.0062 2.0898 3.9625v0.080615zm4.6509 0h-1.8293l0.0062-0.65732h1.8231q0.88057 0 1.5007-0.37827 0.62632-0.38447 0.96118-1.0852 0.33486-0.70693 0.33486-1.6805v-1.4387q0-0.74414-0.19224-1.3271-0.19224-0.58291-0.5519-0.97979-0.35347-0.40308-0.86196-0.60771-0.5085-0.21084-1.141-0.21084h-1.9162v-0.66353h1.9162q0.76895 0 1.4015 0.26045 0.63872 0.25425 1.1038 0.75034 0.46509 0.48989 0.71313 1.1968 0.24805 0.70073 0.24805 1.5999v1.4201q0 0.89297-0.24805 1.5999-0.24805 0.70693-0.71934 1.1968-0.46509 0.48989-1.11 0.75034-0.64492 0.25425-1.4387 0.25425zm-1.4945-9.0289v9.0289h-0.73794v-9.0289z" stroke-miterlimit="50" style="font-variation-settings:'wdth' 85, 'wght' 300" aria-label="THIRD"/><path d="m48.581 5.5892h-2.0154l-0.0124-0.96738h1.8479q0.44028 0 0.76894-0.17363 0.33486-0.17363 0.5209-0.49609 0.18604-0.32246 0.18604-0.77515 0-0.49609-0.16743-0.80615-0.16123-0.31006-0.48989-0.45269-0.32866-0.14883-0.83716-0.14883h-1.5565v8.0367h-1.1782v-9.0289h2.7347q0.63252 0 1.1224 0.14263 0.49609 0.13643 0.84336 0.43408 0.34727 0.29146 0.5271 0.74414t0.17983 1.0852q0 0.55811-0.26665 1.0108-0.26045 0.44648-0.73174 0.73794-0.47129 0.28525-1.0976 0.35967zm-0.04961 4.2168h-2.4371l0.66973-0.98599h1.7673q0.49609 0 0.83716-0.19844 0.34727-0.19844 0.5271-0.55811 0.17983-0.35967 0.17983-0.84956 0-0.50229-0.15503-0.86196-0.14883-0.36587-0.47749-0.56431t-0.86196-0.19844h-1.5627l0.0124-0.96738h2.1208l0.25425 0.34727q0.60151 0.055811 1.0108 0.37207 0.41548 0.31006 0.62632 0.79375t0.21084 1.0666q0 0.84336-0.33486 1.4263-0.33486 0.57671-0.94878 0.88057-0.60772 0.29766-1.4387 0.29766zm4.4462-9.0289h2.7223q0.93638 0 1.5751 0.31006 0.64492 0.31006 0.97358 0.91777 0.33486 0.60151 0.33486 1.4821 0 0.62632-0.22324 1.141-0.22324 0.5085-0.64492 0.86196t-1.0108 0.5333l-0.32866 0.13022h-2.4805l-0.0062-0.98599h1.8169q0.56431 0 0.94258-0.22324 0.37827-0.22324 0.56431-0.60771 0.19224-0.38447 0.19224-0.84336 0-0.5209-0.17363-0.90537-0.17363-0.39067-0.5519-0.60151-0.37207-0.21704-0.97978-0.21704h-1.5379v8.0367h-1.1844zm4.7067 9.0289-1.9534-4.0928 1.2278-0.0062011 1.9906 4.0246v0.074414zm5.5749-8.2104-2.6603 8.2104h-1.2092l3.1192-9.0289h0.76274zm2.189 8.2104-2.6665-8.2104-0.0186-0.81855h0.76894l3.1254 9.0289zm-0.062012-3.3424v0.99219h-4.6323v-0.99219zm7.3036 0.46509h1.1782q-0.06201 0.90537-0.42168 1.5813-0.35967 0.67593-1.0294 1.048-0.66973 0.37207-1.6681 0.37207-0.72554 0-1.3146-0.27905-0.58911-0.27905-1.0108-0.79375-0.41548-0.5209-0.63872-1.2526-0.22324-0.73174-0.22324-1.6371v-1.3519q0-0.90537 0.22324-1.6309 0.22944-0.73174 0.65112-1.2526 0.42788-0.5209 1.0356-0.79995 0.61392-0.27905 1.3767-0.27905 0.94258 0 1.5937 0.36587 0.65112 0.36587 1.0046 1.0418 0.35967 0.67593 0.42168 1.6185h-1.1782q-0.062012-0.68213-0.26665-1.1286-0.19844-0.45269-0.58291-0.67593-0.37827-0.22944-0.99219-0.22944-0.5333 0-0.93018 0.21084t-0.65732 0.60151q-0.26045 0.38447-0.39067 0.93018-0.13022 0.5395-0.13022 1.2154v1.3643q0 0.62632 0.11162 1.1658 0.11782 0.5395 0.35347 0.94878 0.24185 0.40308 0.62012 0.63252 0.38447 0.22944 0.92398 0.22944 0.67593 0 1.0728-0.21704t0.59531-0.66353q0.19844-0.45269 0.27285-1.1348zm3.9191-6.1516v9.0289h-1.1782v-9.0289zm4.9051 0-3.361 4.2168-1.9348 2.189-0.20464-1.2898 1.4325-1.7549 2.6479-3.361zm-1.172 9.0289-2.9146-4.3966 0.71314-0.95498 3.6091 5.3516zm7.6522-0.98599v0.98599h-4.2664v-0.98599zm-4.037-8.0429v9.0289h-1.1782v-9.0289zm3.4665 3.8757v0.98599h-3.6959v-0.98599zm0.5085-3.8757v0.99219h-4.2044v-0.99219zm4.7377 0v9.0289h-1.1658v-9.0289zm2.5797 0v0.99219h-6.3252v-0.99219z" stroke-miterlimit="50" style="font-variation-settings:'wdth' 85, 'wght' 405" aria-label="BRACKET"/></g></svg>
