<svg xmlns="http://www.w3.org/2000/svg" xml:space="preserve" width="360" height="40" viewBox="0 0 95.25 10.58">
  <g stroke-miterlimit="50" stroke-width="0">
    <path d="M15.24.78V9.8h-.73V.78zm2.78 0v.66h-6.28V.78zm6.92 4.04v.66h-4.89v-.66zM20.21.78V9.8h-.73V.78zm5.34 0V9.8h-.74V.78zm3.08 0V9.8h-.73V.78zm2.32 0h2.66q.86 0 1.48.3.62.31.96.9.34.6.34 1.46 0 .64-.24 1.16-.24.52-.67.87-.42.34-1 .47l-.23.1h-2.8l-.02-.66h2.32q.64 0 1.06-.27.43-.27.64-.72.21-.44.21-.95 0-.62-.24-1.06-.22-.46-.68-.7-.46-.24-1.13-.24H31.7v8.37h-.74zm5.01 9.03-2.1-4.04h.79l2.09 3.96v.08zm4.66 0h-1.83v-.66h1.83q.88 0 1.5-.38t.96-1.08q.33-.71.33-1.69V4.57q0-.75-.19-1.33-.2-.58-.55-.98-.36-.4-.86-.6-.51-.22-1.15-.22h-1.91V.78h1.91q.77 0 1.4.26.64.25 1.11.75.47.49.71 1.2.25.7.25 1.6V6q0 .9-.25 1.6t-.72 1.2q-.46.5-1.1.75-.65.26-1.44.26zM39.12.78V9.8h-.74V.78z" aria-label="THIRD" style="font-variation-settings:&quot;wdth&quot;85,&quot;wght&quot;300"/>
    <path d="M48.58 5.59h-2.01l-.02-.97h1.85q.44 0 .77-.17.33-.18.52-.5t.19-.77q0-.5-.17-.8-.16-.32-.49-.46-.33-.15-.84-.15h-1.55V9.8h-1.18V.78h2.73q.64 0 1.12.14.5.14.85.43.35.3.53.75t.18 1.08q0 .56-.27 1.01-.26.45-.73.74t-1.1.36zm-.05 4.22H46.1l.67-.99h1.77q.5 0 .84-.2.35-.2.53-.56t.18-.85q0-.5-.16-.86-.15-.36-.48-.56t-.86-.2h-1.56l.01-.97h2.12l.26.35q.6.05 1 .37.42.31.63.8t.21 1.06q0 .84-.33 1.43-.34.57-.95.88-.6.3-1.44.3zM52.98.78h2.72q.94 0 1.57.3.65.32.98.92.33.6.33 1.49 0 .62-.22 1.14-.22.5-.64.86t-1.02.53l-.32.13H53.9l-.01-.98h1.82q.56 0 .94-.23t.56-.6q.2-.39.2-.85 0-.52-.18-.9-.17-.4-.55-.6-.37-.22-.98-.22h-1.54V9.8h-1.18zm4.7 9.03-1.95-4.1h1.23l1.99 4.02v.08zm5.58-8.21L60.6 9.8h-1.21L62.51.79h.76zm2.19 8.2-2.67-8.2-.02-.82h.77l3.13 9.03zm-.06-3.34v1h-4.64v-1zm7.3.47h1.18q-.06.9-.42 1.58t-1.03 1.05-1.67.37q-.73 0-1.32-.28-.58-.28-1-.8-.42-.51-.65-1.25-.22-.73-.22-1.63V4.62q0-.91.22-1.64.23-.73.66-1.25.42-.52 1.03-.8.62-.28 1.38-.28.94 0 1.6.37t1 1.04q.36.68.42 1.62h-1.18q-.06-.68-.27-1.13-.2-.45-.58-.68-.38-.22-1-.22-.53 0-.92.2t-.66.6q-.26.4-.39.94-.13.54-.13 1.21v1.37q0 .62.11 1.16.12.54.35.95.25.4.62.63.39.23.93.23.67 0 1.07-.21t.6-.67q.2-.45.27-1.13zM76.61.78V9.8h-1.18V.78zm4.9 0-3.36 4.21-1.93 2.2-.2-1.3 1.43-1.75L80.09.78zM80.34 9.8l-2.91-4.4.71-.96 3.61 5.36zM88 8.82v.99h-4.26v-.99zM83.96.78V9.8h-1.18V.78zm3.46 3.87v.99h-3.7v-.99zm.51-3.87v.99h-4.2v-1zm4.74 0V9.8H91.5V.78zm2.58 0v.99h-6.33v-1z" aria-label="BRACKET" style="font-variation-settings:&quot;wdth&quot;85,&quot;wght&quot;405"/>
    <path d="M10.4 9.3a1.54 1.54 0 0 0 .05-.33V1.61a1.54 1.54 0 0 0-.05-.37L5.82 2.78 5.77 7.8z" style="font-variation-settings:&quot;wdth&quot;75,&quot;wght&quot;900"/>
    <path d="M9.27.11a1.54 1.54 0 0 0-.36-.04H1.54A1.54 1.54 0 0 0 0 1.6v7.36a1.54 1.54 0 0 0 1.54 1.55h7.37a1.54 1.54 0 0 0 .18-.03L4.11 8.96l-.03-7.1z" style="font-variation-settings:&quot;wdth&quot;75,&quot;wght&quot;900"/>
    <path fill="#fff" d="M9.27.11 4.08 1.87l.03 7.09 4.98 1.53a1.54 1.54 0 0 0 1.32-1.2L5.77 7.8l.05-5.02 4.58-1.54A1.54 1.54 0 0 0 9.27.1z" style="font-variation-settings:&quot;wdth&quot;75,&quot;wght&quot;900"/>
  </g>
</svg>
