<svg xmlns="http://www.w3.org/2000/svg" xml:space="preserve" width="360" height="40" viewBox="0 0 95.25 10.583">
  <defs>
    <radialGradient id="a" cx="5.292" cy="5.292" r="5.292" gradientTransform="matrix(-.97157 -.01338 .01377 -.99991 10.36 10.654)" gradientUnits="userSpaceOnUse">
      <stop offset="0" stop-color="#292d3d"/>
      <stop offset="1"/>
    </radialGradient>
  </defs>
  <g stroke-width="0">
    <path fill="url(#a)" d="M2.68 0A2.68 2.68 0 0 0 0 2.68v5.224c0 1.48 1.2 2.68 2.68 2.68h5.224c.337 0 .659-.066.956-.18l-5.065-1.56-.025-6.78L9.07.27A2.664 2.664 0 0 0 7.904 0zm7.533 1.324L5.435 2.938l-.05 4.801 4.809 1.552c.245-.405.39-.879.39-1.387V2.679c0-.495-.137-.957-.371-1.355z"/>
    <path d="M15.612.53v9.524h-.74V.529zm2.715 0v.7H12.17v-.7zm6.882 4.264v.7h-4.756v-.7zM20.609.53v9.525h-.745V.529zm5.221 0v9.525h-.752V.529zm3.153 0v9.525h-.752V.529zm2.375 0h2.61q.837 0 1.445.327.615.32.949.949.334.621.334 1.53 0 .674-.242 1.224-.236.55-.648.916-.412.366-.975.503l-.242.112h-2.721l-.013-.7h2.237q.621 0 1.034-.288.412-.288.615-.759.209-.471.209-1.007 0-.648-.23-1.119-.222-.478-.666-.733-.439-.255-1.086-.255h-1.865v8.825h-.745zm4.886 9.525-2.047-4.259.798-.006 2.04 4.18v.085zm4.678 0h-1.786l.006-.7h1.78q.856 0 1.458-.36t.916-1.053q.32-.694.32-1.688V4.317q0-.759-.183-1.335-.176-.582-.523-.968-.34-.392-.83-.589-.491-.196-1.106-.196h-1.871v-.7h1.87q.76 0 1.381.249.622.248 1.066.732.452.485.694 1.191.242.707.242 1.629v1.923q0 .916-.242 1.629t-.694 1.197q-.45.478-1.085.726-.635.249-1.413.249zM39.482.529v9.525h-.745V.529z" aria-label="THIRD" style="font-variation-settings:&quot;wdth&quot;75,&quot;wght&quot;300"/>
    <path d="M50.026 5.59h-1.885l-.012-.986h1.75q.395 0 .7-.178.307-.179.478-.51.172-.337.172-.802 0-.503-.146-.821-.147-.325-.452-.471-.3-.153-.764-.153h-1.471v8.258h-1.178V.657h2.649q.598 0 1.07.146.47.14.802.446.33.299.503.764t.172 1.114q0 .573-.261 1.038-.255.458-.714.751-.458.293-1.063.376zm-.045 4.337h-2.323l.68-1.006h1.643q.459 0 .777-.204.319-.204.484-.573.166-.37.166-.879 0-.515-.14-.891-.134-.376-.44-.58-.305-.203-.802-.203h-1.509l.013-.987h2.037l.261.357q.573.057.968.382.395.318.592.815.204.496.204 1.095 0 .866-.325 1.464-.318.592-.91.904-.586.306-1.376.306zm4.362-9.27h2.591q.904 0 1.516.318.617.318.935.942.319.618.319 1.522 0 .637-.21 1.165-.21.522-.612.891-.4.363-.974.542l-.324.14h-2.312L55.26 5.17h1.661q.535 0 .892-.23.356-.235.528-.63.179-.394.179-.872 0-.535-.16-.93-.152-.4-.503-.617-.343-.223-.923-.223h-1.413v8.258h-1.178zm4.444 9.27L56.94 5.725l1.228-.007 1.879 4.133v.076zm5.482-8.443L61.74 9.927h-1.203l2.986-9.27h.751zm2.044 8.443-2.528-8.443-.013-.828h.764l2.986 9.27zm0-3.432v1.012H61.85V6.495zm7.035.484h1.177q-.044.955-.388 1.649-.337.688-.987 1.057-.643.37-1.61.37-.695 0-1.255-.275-.56-.273-.961-.783-.395-.515-.605-1.235-.21-.72-.21-1.617V4.432q0-.891.21-1.61.216-.72.617-1.23.408-.515.987-.789Q70.91.53 71.648.53q.904 0 1.528.363.63.357.967 1.05.344.688.382 1.688h-1.177q-.045-.732-.23-1.19-.184-.459-.54-.675-.357-.223-.93-.223-.51 0-.885.203-.37.204-.605.58-.236.375-.357.91-.114.529-.114 1.184v1.726q0 .611.095 1.14.102.528.318.923.217.395.573.617.357.223.866.223.643 0 1.013-.21.375-.21.554-.662.184-.458.242-1.197zM77.282.656v9.27h-1.178V.657zm4.66 0L78.754 4.98l-1.865 2.254-.21-1.318 1.362-1.802L80.53.656zm-1.177 9.27-2.725-4.52.7-.974 3.426 5.495zm7.437-1.005v1.006h-4.024V8.92zM84.394.656v9.27h-1.178V.657zm3.267 3.986v1h-3.483v-1zm.477-3.986V1.67h-3.96V.656zm4.673 0v9.27h-1.165V.657zm2.44 0V1.67h-6.037V.656z" aria-label="BRACKET" style="font-variation-settings:&quot;wdth&quot;75,&quot;wght&quot;402"/>
  </g>
</svg>
