<?xml version="1.0" encoding="UTF-8"?>
<svg xmlns="http://www.w3.org/2000/svg" width="136" height="64" viewBox="0 0 136 64" fill="none">
  <g clip-path="url(#clip0_1776_422)">
    <path d="M12.1902 36.2798C11.944 35.6887 11.6177 34.9376 11.2113 34.0264C10.805 33.1153 10.3679 32.1302 9.89994 31.0712C9.43203 30.0123 8.93334 28.9226 8.40387 27.802C7.87439 26.6815 7.3757 25.6226 6.90779 24.6252C6.43988 23.6278 6.00276 22.7351 5.59642 21.947C5.19008 21.159 4.86378 20.5556 4.61751 20.137C4.34661 23.0429 4.12498 26.189 3.95259 29.5752C3.7802 32.9614 3.63244 36.3783 3.50931 39.826H0C0.0985074 37.6096 0.209326 35.3748 0.332461 33.1214C0.455595 30.8681 0.597197 28.6517 0.757272 26.4722C0.917346 24.2927 1.08973 22.1687 1.27443 20.1C1.45913 18.0314 1.6623 16.0736 1.88394 14.2266H5.02385C5.68878 15.3101 6.40294 16.5907 7.16638 18.0683C7.92981 19.5459 8.69323 21.0913 9.45666 22.7043C10.2201 24.3174 10.9589 25.9304 11.6731 27.5435C12.3872 29.1565 13.0398 30.628 13.6309 31.9578C14.2219 30.628 14.8745 29.1565 15.5887 27.5435C16.3029 25.9304 17.0417 24.3174 17.8051 22.7043C18.5686 21.0913 19.332 19.5459 20.0954 18.0683C20.8588 16.5907 21.573 15.3101 22.2379 14.2266H25.3778C26.2151 22.4766 26.8431 31.0096 27.2618 39.826H23.7525C23.6293 36.3783 23.4816 32.9614 23.3092 29.5752C23.1368 26.189 22.9152 23.0429 22.6443 20.137C22.398 20.5556 22.0717 21.159 21.6654 21.947C21.259 22.7351 20.8219 23.6278 20.354 24.6252C19.8861 25.6226 19.3874 26.6815 18.8579 27.802C18.3284 28.9226 17.8297 30.0123 17.3618 31.0712C16.8939 32.1302 16.4568 33.1153 16.0505 34.0264C15.6441 34.9376 15.3178 35.6887 15.0716 36.2798H12.1902Z" fill="#232020"/>
    <path d="M34.3745 37.3508C35.1872 37.3508 35.9075 37.3323 36.5355 37.2954C37.1635 37.2585 37.6868 37.1907 38.1055 37.0922V31.3665C37.8592 31.2434 37.459 31.1387 36.9049 31.0525C36.3508 30.9663 35.6797 30.9232 34.8917 30.9232C34.3745 30.9232 33.8266 30.9602 33.2479 31.034C32.6691 31.1079 32.1397 31.2618 31.6594 31.4958C31.1792 31.7298 30.779 32.0499 30.4589 32.4562C30.1387 32.8626 29.9787 33.3982 29.9787 34.0631C29.9787 35.2945 30.3727 36.1502 31.1607 36.6305C31.9488 37.1107 33.0201 37.3508 34.3745 37.3508ZM34.079 20.1367C35.4581 20.1367 36.6217 20.3153 37.5698 20.6724C38.518 21.0294 39.2814 21.5343 39.8601 22.1869C40.4389 22.8395 40.8514 23.6152 41.0976 24.5141C41.3439 25.413 41.467 26.4042 41.467 27.4878V39.4933C41.1715 39.5426 40.759 39.6103 40.2295 39.6965C39.7001 39.7827 39.1029 39.8627 38.4379 39.9366C37.773 40.0105 37.0527 40.0782 36.2769 40.1398C35.5012 40.2013 34.7316 40.2321 33.9682 40.2321C32.8846 40.2321 31.8872 40.1213 30.976 39.8997C30.0648 39.678 29.2768 39.3271 28.6119 38.8469C27.9469 38.3667 27.4298 37.7325 27.0604 36.9445C26.691 36.1564 26.5063 35.2083 26.5063 34.1001C26.5063 33.0411 26.7218 32.1299 27.1527 31.3665C27.5837 30.6031 28.1686 29.9874 28.9074 29.5195C29.6462 29.0516 30.5081 28.7068 31.4932 28.4852C32.4783 28.2635 33.5126 28.1527 34.5962 28.1527C34.9409 28.1527 35.298 28.1712 35.6674 28.2081C36.0368 28.2451 36.3878 28.2943 36.7202 28.3559C37.0527 28.4175 37.342 28.4729 37.5883 28.5221C37.8346 28.5714 38.007 28.6083 38.1055 28.6329V27.6725C38.1055 27.1061 38.0439 26.5458 37.9208 25.9917C37.7976 25.4376 37.576 24.9451 37.2559 24.5141C36.9357 24.0831 36.4986 23.7384 35.9445 23.4798C35.3904 23.2212 34.6701 23.0919 33.7835 23.0919C32.6506 23.0919 31.6594 23.172 30.8098 23.332C29.9602 23.4921 29.326 23.6583 28.9074 23.8307L28.5011 20.9863C28.9443 20.7893 29.6831 20.5985 30.7175 20.4138C31.7518 20.2291 32.8723 20.1367 34.079 20.1367Z" fill="#232020"/>
    <path d="M54.3084 37.9052C54.0128 38.1022 53.4403 38.3547 52.5907 38.6625C51.741 38.9703 50.7498 39.1243 49.617 39.1243C48.4595 39.1243 47.3698 38.9396 46.3478 38.5702C45.3258 38.2007 44.4331 37.6282 43.6696 36.8524C42.9062 36.0767 42.3028 35.1101 41.8596 33.9526C41.4163 32.7952 41.1946 31.4161 41.1946 29.8154C41.1946 28.4116 41.404 27.1249 41.8226 25.9551C42.2413 24.7853 42.8508 23.7757 43.6512 22.926C44.4515 22.0764 45.4304 21.4115 46.5879 20.9313C47.7454 20.451 49.0506 20.2109 50.5035 20.2109C52.1043 20.2109 53.5018 20.3279 54.6962 20.5619C55.8906 20.7958 56.8942 21.0113 57.7069 21.2083V38.3485C57.7069 41.3037 56.9434 43.4462 55.4166 44.7761C53.8897 46.1059 51.5748 46.7709 48.4718 46.7709C47.2651 46.7709 46.1261 46.6723 45.0549 46.4753C43.9836 46.2783 43.054 46.0444 42.2659 45.7735L42.8939 42.7813C43.5834 43.0522 44.4269 43.2923 45.4243 43.5017C46.4217 43.711 47.4621 43.8156 48.5457 43.8156C50.5897 43.8156 52.0612 43.4093 52.9601 42.5966C53.8589 41.7839 54.3084 40.491 54.3084 38.7179V37.9052ZM54.2714 23.6464C53.9267 23.5479 53.4649 23.4555 52.8862 23.3693C52.3074 23.2831 51.5256 23.24 50.5405 23.24C48.6935 23.24 47.2713 23.8434 46.2739 25.0501C45.2765 26.2568 44.7778 27.8575 44.7778 29.8523C44.7778 30.9605 44.9194 31.9086 45.2026 32.6967C45.4858 33.4847 45.8676 34.1373 46.3478 34.6545C46.828 35.1717 47.3821 35.5534 48.0101 35.7996C48.6381 36.0459 49.2845 36.169 49.9494 36.169C50.8606 36.169 51.6979 36.0398 52.4614 35.7812C53.2248 35.5226 53.8281 35.2209 54.2714 34.8761V23.6464Z" fill="#232020"/>
    <path d="M58.8991 21.1714C59.6872 20.9744 60.7338 20.765 62.039 20.5434C63.3442 20.3218 64.8465 20.2109 66.5457 20.2109C68.0726 20.2109 69.3408 20.4264 70.3505 20.8574C71.3602 21.2884 72.1667 21.8917 72.7701 22.6675C73.3735 23.4432 73.7983 24.3728 74.0445 25.4564C74.2908 26.54 74.4139 27.7344 74.4139 29.0396V39.8261H70.9785V29.7784C70.9785 28.5963 70.8985 27.5866 70.7384 26.7493C70.5783 25.912 70.3136 25.2348 69.9442 24.7176C69.5748 24.2005 69.0823 23.8249 68.4666 23.591C67.8509 23.357 67.0875 23.24 66.1763 23.24C65.8069 23.24 65.4252 23.2523 65.0312 23.277C64.6371 23.3016 64.2616 23.3324 63.9045 23.3693C63.5474 23.4063 63.2273 23.4494 62.944 23.4986C62.6608 23.5479 62.4577 23.5848 62.3345 23.6094V39.8261H58.8991V21.1714Z" fill="#232020"/>
    <path d="M74.2397 30.2583C74.2397 28.559 74.486 27.0753 74.9785 25.807C75.471 24.5387 76.1236 23.486 76.9363 22.6486C77.749 21.8113 78.6848 21.1834 79.7438 20.7647C80.8027 20.346 81.8863 20.1367 82.9945 20.1367C85.5803 20.1367 87.5627 20.9432 88.9418 22.5563C90.3209 24.1694 91.0105 26.6258 91.0105 29.9258V30.4984C91.0105 30.7324 90.9982 30.9478 90.9735 31.1449H77.8229C77.9706 33.1396 78.5494 34.6542 79.5591 35.6885C80.5688 36.7228 82.1449 37.24 84.2874 37.24C85.4941 37.24 86.5099 37.1353 87.3349 36.926C88.1599 36.7167 88.7818 36.5135 89.2004 36.3165L89.6806 39.1978C89.262 39.4194 88.5293 39.6534 87.4827 39.8997C86.4361 40.1459 85.2478 40.2691 83.918 40.2691C82.2434 40.2691 80.7966 40.0166 79.5775 39.5118C78.3585 39.0069 77.355 38.3112 76.5669 37.4247C75.7788 36.5381 75.194 35.4853 74.8123 34.2663C74.4305 33.0473 74.2397 31.7113 74.2397 30.2583ZM87.4273 28.3744C87.4519 26.8229 87.0641 25.5484 86.2637 24.5511C85.4633 23.5537 84.3613 23.055 82.9575 23.055C82.1695 23.055 81.4738 23.2089 80.8704 23.5167C80.2671 23.8246 79.7561 24.2248 79.3374 24.7173C78.9188 25.2098 78.5925 25.7762 78.3585 26.4165C78.1245 27.0568 77.9706 27.7094 77.8968 28.3744H87.4273Z" fill="#232020"/>
    <path d="M94.4455 20.6173H101.723V23.4986H94.4455V32.3642C94.4455 33.3247 94.5194 34.1189 94.6671 34.7469C94.8149 35.3748 95.0365 35.8674 95.3321 36.2245C95.6276 36.5816 95.997 36.834 96.4403 36.9817C96.8836 37.1295 97.4007 37.2034 97.9918 37.2034C99.0261 37.2034 99.8572 37.0864 100.485 36.8524C101.113 36.6185 101.55 36.4523 101.797 36.3538L102.462 39.1981C102.117 39.3705 101.513 39.586 100.651 39.8446C99.7895 40.1032 98.8044 40.2325 97.6962 40.2325C96.391 40.2325 95.3136 40.0662 94.464 39.7338C93.6143 39.4013 92.931 38.9026 92.4138 38.2377C91.8966 37.5728 91.5334 36.7539 91.3241 35.7812C91.1147 34.8084 91.0101 33.6818 91.0101 32.4012V15.261L94.4455 14.6699V20.6173Z" fill="#232020"/>
    <path d="M117.736 30.2214C117.736 31.7482 117.514 33.1273 117.071 34.3587C116.628 35.59 116.006 36.6489 115.206 37.5355C114.405 38.4221 113.451 39.1054 112.343 39.5857C111.234 40.0659 110.028 40.306 108.723 40.306C107.417 40.306 106.211 40.0659 105.102 39.5857C103.994 39.1054 103.04 38.4221 102.24 37.5355C101.439 36.6489 100.817 35.59 100.374 34.3587C99.9308 33.1273 99.7092 31.7482 99.7092 30.2214C99.7092 28.7191 99.9308 27.3462 100.374 26.1025C100.817 24.8589 101.439 23.7938 102.24 22.9072C103.04 22.0207 103.994 21.3373 105.102 20.8571C106.211 20.3768 107.417 20.1367 108.723 20.1367C110.028 20.1367 111.234 20.3768 112.343 20.8571C113.451 21.3373 114.405 22.0207 115.206 22.9072C116.006 23.7938 116.628 24.8589 117.071 26.1025C117.514 27.3462 117.736 28.7191 117.736 30.2214ZM114.153 30.2214C114.153 28.0542 113.666 26.3365 112.694 25.0682C111.721 23.7999 110.397 23.1658 108.723 23.1658C107.048 23.1658 105.724 23.7999 104.751 25.0682C103.779 26.3365 103.292 28.0542 103.292 30.2214C103.292 32.3885 103.779 34.1062 104.751 35.3745C105.724 36.6428 107.048 37.2769 108.723 37.2769C110.397 37.2769 111.721 36.6428 112.694 35.3745C113.666 34.1062 114.153 32.3885 114.153 30.2214Z" fill="#232020"/>
    <path fill-rule="evenodd" clip-rule="evenodd" d="M111.178 17.7558L115.383 3.19014L111.357 0.318003C110.272 -0.115434 109.676 0.1562 109.567 1.1329C109.404 2.59796 107.797 13.8307 107.403 16.6407C108.796 16.8639 110.054 17.2356 111.178 17.7558Z" fill="#232020"/>
    <path fill-rule="evenodd" clip-rule="evenodd" d="M115.384 3.31061L116.202 3.03981L111.788 0.143906C111.021 -0.0769715 110.459 -0.0435848 110.102 0.244066C110.787 0.221655 111.267 0.300285 111.544 0.479956C111.82 0.659626 113.1 1.60318 115.384 3.31061Z" fill="#232020"/>
    <path fill-rule="evenodd" clip-rule="evenodd" d="M111.1 17.7564C111.094 17.7519 111.275 17.8496 111.643 18.0496L116.125 3.01465L115.306 3.19073L111.1 17.7564Z" fill="#232020"/>
    <path fill-rule="evenodd" clip-rule="evenodd" d="M116.603 21.3255L122.239 11.4024L117.654 8.42956C116.67 8.17198 116.078 8.3699 115.878 9.02332C115.578 10.0035 113.578 16.0885 112.749 18.5005C114.239 19.2416 115.523 20.1832 116.603 21.3255Z" fill="#232020"/>
    <path fill-rule="evenodd" clip-rule="evenodd" d="M122.239 11.4353L122.646 11.2199L118.027 8.17684C117.061 7.93414 116.434 8.04741 116.148 8.51666C116.86 8.28852 117.402 8.28727 117.773 8.51292C118.145 8.73857 119.633 9.71269 122.239 11.4353Z" fill="#232020"/>
    <path fill-rule="evenodd" clip-rule="evenodd" d="M116.578 21.325L122.213 11.4019L122.62 11.1865L116.762 21.6162L116.578 21.325Z" fill="#232020"/>
    <path fill-rule="evenodd" clip-rule="evenodd" d="M121.484 28.9936L135.179 15.901L127.578 10.8884C126.386 10.5535 125.567 10.7479 125.123 11.4718C124.455 12.5576 119.638 20.2751 118.027 22.7221C119.632 24.6218 120.784 26.7123 121.484 28.9936Z" fill="#232020"/>
    <path fill-rule="evenodd" clip-rule="evenodd" d="M135.179 15.9004L135.44 15.2852L128.057 10.5797C127.231 10.3544 126.543 10.4299 125.995 10.8063C126.82 10.7033 127.399 10.7674 127.732 10.9987C128.066 11.2299 130.548 12.8638 135.179 15.9004Z" fill="#232020"/>
    <path d="M58.7407 45.3133H59.8163V51.2291H58.7407V45.3133Z" fill="#232020"/>
    <path d="M65.6978 45.3133V46.2438H63.8796V51.2291H62.7954V46.2438H60.9772V45.3133H65.6978Z" fill="#232020"/>
    <path d="M70.6276 50.4266C71.0146 50.4266 71.2963 50.3612 71.4727 50.2303C71.6491 50.0994 71.7373 49.9145 71.7373 49.6754C71.7373 49.5332 71.706 49.4108 71.6434 49.3084C71.5865 49.2059 71.5012 49.1149 71.3873 49.0352C71.2792 48.9499 71.1455 48.873 70.9861 48.8047C70.8268 48.7307 70.6447 48.6596 70.4398 48.5913C70.2349 48.5173 70.0357 48.4377 69.8423 48.3523C69.6545 48.2612 69.4866 48.1503 69.3386 48.0194C69.1963 47.8885 69.0797 47.732 68.9886 47.5499C68.9032 47.3678 68.8606 47.1487 68.8606 46.8926C68.8606 46.3576 69.0455 45.9393 69.4154 45.6377C69.7853 45.3304 70.289 45.1768 70.9264 45.1768C71.2963 45.1768 71.6235 45.2194 71.9081 45.3048C72.1983 45.3845 72.4259 45.4727 72.591 45.5694L72.2581 46.4401C72.0646 46.332 71.8512 46.2495 71.6178 46.1926C71.3902 46.1357 71.154 46.1072 70.9093 46.1072C70.6191 46.1072 70.3914 46.167 70.2264 46.2865C70.067 46.406 69.9874 46.5739 69.9874 46.7901C69.9874 46.921 70.013 47.0348 70.0642 47.1316C70.1211 47.2227 70.1979 47.3052 70.2947 47.3792C70.3971 47.4531 70.5138 47.5214 70.6447 47.584C70.7813 47.6466 70.9292 47.7064 71.0886 47.7633C71.3674 47.8657 71.615 47.971 71.8312 48.0791C72.0532 48.1816 72.2381 48.3068 72.3861 48.4547C72.5398 48.597 72.6564 48.7677 72.7361 48.9669C72.8158 49.1604 72.8556 49.3966 72.8556 49.6754C72.8556 50.2104 72.665 50.6258 72.2837 50.9218C71.9081 51.212 71.356 51.3571 70.6276 51.3571C70.3829 51.3571 70.1581 51.34 69.9532 51.3059C69.754 51.2774 69.5748 51.2405 69.4154 51.1949C69.2618 51.1494 69.128 51.1039 69.0142 51.0583C68.9004 51.0071 68.8093 50.9616 68.7411 50.9218L69.0569 50.0425C69.2106 50.1279 69.4183 50.2132 69.6801 50.2986C69.9418 50.384 70.2577 50.4266 70.6276 50.4266Z" fill="#232020"/>
    <path d="M75.0242 48.2669C75.0242 48.5913 75.064 48.8872 75.1437 49.1547C75.2234 49.4165 75.3372 49.6413 75.4852 49.8291C75.6388 50.0112 75.8238 50.1535 76.04 50.2559C76.2563 50.3584 76.501 50.4096 76.7741 50.4096C77.0416 50.4096 77.2835 50.3584 77.4997 50.2559C77.716 50.1535 77.8981 50.0112 78.0461 49.8291C78.1997 49.6413 78.3164 49.4165 78.3961 49.1547C78.4757 48.8872 78.5156 48.5913 78.5156 48.2669C78.5156 47.9426 78.4757 47.6495 78.3961 47.3877C78.3164 47.1202 78.1997 46.8954 78.0461 46.7133C77.8981 46.5255 77.716 46.3804 77.4997 46.278C77.2835 46.1755 77.0416 46.1243 76.7741 46.1243C76.501 46.1243 76.2563 46.1755 76.04 46.278C75.8238 46.3804 75.6388 46.5255 75.4852 46.7133C75.3372 46.9011 75.2234 47.1259 75.1437 47.3877C75.064 47.6495 75.0242 47.9426 75.0242 48.2669ZM79.6424 48.2669C79.6424 48.7734 79.5656 49.2202 79.4119 49.6072C79.2639 49.9941 79.0591 50.3185 78.7973 50.5803C78.5412 50.8364 78.2396 51.0299 77.8924 51.1608C77.5453 51.2917 77.1754 51.3571 76.7827 51.3571C76.39 51.3571 76.0173 51.2917 75.6644 51.1608C75.3173 51.0299 75.0128 50.8364 74.751 50.5803C74.4949 50.3185 74.2901 49.9941 74.1364 49.6072C73.9827 49.2202 73.9059 48.7734 73.9059 48.2669C73.9059 47.7604 73.9827 47.3166 74.1364 46.9353C74.2901 46.5483 74.4978 46.2239 74.7596 45.9621C75.027 45.7003 75.3343 45.504 75.6815 45.3731C76.0286 45.2422 76.3957 45.1768 76.7827 45.1768C77.1697 45.1768 77.5367 45.2422 77.8839 45.3731C78.231 45.504 78.5326 45.7003 78.7887 45.9621C79.0505 46.2239 79.2582 46.5483 79.4119 46.9353C79.5656 47.3166 79.6424 47.7604 79.6424 48.2669Z" fill="#232020"/>
    <path d="M84.9027 50.2986V51.2291H81.1638V45.3133H82.2394V50.2986H84.9027Z" fill="#232020"/>
    <path d="M88.2111 51.3571C87.807 51.3571 87.4599 51.3002 87.1696 51.1864C86.8794 51.0669 86.6375 50.9018 86.444 50.6913C86.2562 50.4807 86.1168 50.2332 86.0257 49.9486C85.9347 49.6641 85.8892 49.3511 85.8892 49.0096V45.3133H86.9733V48.9072C86.9733 49.1746 87.0017 49.4051 87.0586 49.5986C87.1212 49.7864 87.2066 49.9401 87.3147 50.0596C87.4286 50.1791 87.5595 50.2673 87.7074 50.3242C87.8611 50.3811 88.0318 50.4096 88.2196 50.4096C88.4074 50.4096 88.5781 50.3811 88.7318 50.3242C88.8854 50.2673 89.0163 50.1791 89.1245 50.0596C89.2383 49.9401 89.3236 49.7864 89.3806 49.5986C89.4432 49.4051 89.4745 49.1746 89.4745 48.9072V45.3133H90.5586V49.0096C90.5586 49.3511 90.5102 49.6641 90.4135 49.9486C90.3224 50.2332 90.1801 50.4807 89.9866 50.6913C89.7988 50.9018 89.557 51.0669 89.261 51.1864C88.9651 51.3002 88.6151 51.3571 88.2111 51.3571Z" fill="#232020"/>
    <path d="M96.3985 45.3133V46.2438H94.5803V51.2291H93.4962V46.2438H91.6779V45.3133H96.3985Z" fill="#232020"/>
    <path d="M97.5604 45.3133H98.6359V51.2291H97.5604V45.3133Z" fill="#232020"/>
    <path d="M101.274 48.2669C101.274 48.5913 101.313 48.8872 101.393 49.1547C101.473 49.4165 101.587 49.6413 101.735 49.8291C101.888 50.0112 102.073 50.1535 102.289 50.2559C102.506 50.3584 102.75 50.4096 103.024 50.4096C103.291 50.4096 103.533 50.3584 103.749 50.2559C103.965 50.1535 104.148 50.0112 104.296 49.8291C104.449 49.6413 104.566 49.4165 104.646 49.1547C104.725 48.8872 104.765 48.5913 104.765 48.2669C104.765 47.9426 104.725 47.6495 104.646 47.3877C104.566 47.1202 104.449 46.8954 104.296 46.7133C104.148 46.5255 103.965 46.3804 103.749 46.278C103.533 46.1755 103.291 46.1243 103.024 46.1243C102.75 46.1243 102.506 46.1755 102.289 46.278C102.073 46.3804 101.888 46.5255 101.735 46.7133C101.587 46.9011 101.473 47.1259 101.393 47.3877C101.313 47.6495 101.274 47.9426 101.274 48.2669ZM105.892 48.2669C105.892 48.7734 105.815 49.2202 105.661 49.6072C105.513 49.9941 105.309 50.3185 105.047 50.5803C104.791 50.8364 104.489 51.0299 104.142 51.1608C103.795 51.2917 103.425 51.3571 103.032 51.3571C102.639 51.3571 102.267 51.2917 101.914 51.1608C101.567 51.0299 101.262 50.8364 101 50.5803C100.744 50.3185 100.539 49.9941 100.386 49.6072C100.232 49.2202 100.155 48.7734 100.155 48.2669C100.155 47.7604 100.232 47.3166 100.386 46.9353C100.539 46.5483 100.747 46.2239 101.009 45.9621C101.276 45.7003 101.584 45.504 101.931 45.3731C102.278 45.2422 102.645 45.1768 103.032 45.1768C103.419 45.1768 103.786 45.2422 104.133 45.3731C104.48 45.504 104.782 45.7003 105.038 45.9621C105.3 46.2239 105.508 46.5483 105.661 46.9353C105.815 47.3166 105.892 47.7604 105.892 48.2669Z" fill="#232020"/>
    <path d="M111.4 51.2291C111.206 50.9047 110.99 50.5575 110.751 50.1876C110.512 49.812 110.264 49.4364 110.008 49.0608C109.752 48.6795 109.49 48.3125 109.223 47.9596C108.961 47.6011 108.711 47.2796 108.472 46.995V51.2291H107.413V45.3133H108.292C108.52 45.5524 108.765 45.8369 109.027 46.167C109.288 46.4914 109.55 46.83 109.812 47.1828C110.079 47.5357 110.336 47.8913 110.58 48.2499C110.831 48.6027 111.053 48.9328 111.246 49.2401V45.3133H112.313V51.2291H111.4Z" fill="#232020"/>
    <path d="M115.508 50.4266C115.895 50.4266 116.176 50.3612 116.353 50.2303C116.529 50.0994 116.617 49.9145 116.617 49.6754C116.617 49.5332 116.586 49.4108 116.524 49.3084C116.467 49.2059 116.381 49.1149 116.267 49.0352C116.159 48.9499 116.026 48.873 115.866 48.8047C115.707 48.7307 115.525 48.6596 115.32 48.5913C115.115 48.5173 114.916 48.4377 114.722 48.3523C114.535 48.2612 114.367 48.1503 114.219 48.0194C114.076 47.8885 113.96 47.732 113.869 47.5499C113.783 47.3678 113.741 47.1487 113.741 46.8926C113.741 46.3576 113.926 45.9393 114.296 45.6377C114.665 45.3304 115.169 45.1768 115.807 45.1768C116.176 45.1768 116.504 45.2194 116.788 45.3048C117.078 45.3845 117.306 45.4727 117.471 45.5694L117.138 46.4401C116.945 46.332 116.731 46.2495 116.498 46.1926C116.27 46.1357 116.034 46.1072 115.789 46.1072C115.499 46.1072 115.272 46.167 115.107 46.2865C114.947 46.406 114.868 46.5739 114.868 46.7901C114.868 46.921 114.893 47.0348 114.944 47.1316C115.001 47.2227 115.078 47.3052 115.175 47.3792C115.277 47.4531 115.394 47.5214 115.525 47.584C115.661 47.6466 115.809 47.7064 115.969 47.7633C116.248 47.8657 116.495 47.971 116.711 48.0791C116.933 48.1816 117.118 48.3068 117.266 48.4547C117.42 48.597 117.537 48.7677 117.616 48.9669C117.696 49.1604 117.736 49.3966 117.736 49.6754C117.736 50.2104 117.545 50.6258 117.164 50.9218C116.788 51.212 116.236 51.3571 115.508 51.3571C115.263 51.3571 115.038 51.34 114.833 51.3059C114.634 51.2774 114.455 51.2405 114.296 51.1949C114.142 51.1494 114.008 51.1039 113.894 51.0583C113.781 51.0071 113.689 50.9616 113.621 50.9218L113.937 50.0425C114.091 50.1279 114.298 50.2132 114.56 50.2986C114.822 50.384 115.138 50.4266 115.508 50.4266Z" fill="#232020"/>
  </g>
  <path d="M115.94 61.8252V63.9126H115.108V61.8252L113.319 58.7334H114.245L115.524 60.9934L116.811 58.7334H117.737L115.94 61.8252Z" fill="#232020"/>
  <path d="M109.293 62.2337V58.7338H110.125V63.9993H109.842L106.688 60.4131V63.913H105.856V58.6475H106.138L109.293 62.2337Z" fill="#232020"/>
  <path d="M102.723 63.913H101.828L101.46 63.0498H99.129L98.7602 63.913H97.8734L100.157 58.6475H100.439L102.723 63.913ZM99.4272 62.3357H101.154L100.298 60.1934L99.4272 62.3357Z" fill="#232020"/>
  <path d="M93.9808 58.7334C94.2476 58.7334 94.4882 58.7726 94.7027 58.8511C94.9225 58.9243 95.1082 59.0316 95.2599 59.1728C95.4168 59.3141 95.5372 59.4815 95.6209 59.6751C95.7046 59.8686 95.7464 60.0831 95.7464 60.3186C95.7464 60.554 95.7046 60.7685 95.6209 60.962C95.5372 61.1556 95.4168 61.323 95.2599 61.4643C95.1082 61.6055 94.9225 61.7154 94.7027 61.7939C94.4882 61.8723 94.2476 61.9116 93.9808 61.9116H92.9292V63.9126H92.0974V58.7334H93.9808ZM92.9292 59.471V61.1739H93.9729C94.2711 61.1739 94.4987 61.0954 94.6556 60.9385C94.8126 60.7816 94.8911 60.5775 94.8911 60.3264C94.8911 60.0753 94.8126 59.8713 94.6556 59.7143C94.4987 59.5521 94.2711 59.471 93.9729 59.471H92.9292Z" fill="#232020"/>
  <path d="M88.4869 63.913H87.6551V60.6642L86.1641 62.6104H85.8895L84.3985 60.6564V63.913H83.5667V58.6475H83.8492L86.0229 61.5431L88.2044 58.6475H88.4869V63.913Z" fill="#232020"/>
  <path d="M77.5369 58.6475C77.9136 58.6475 78.2667 58.7155 78.5963 58.8515C78.9259 58.9875 79.2136 59.1758 79.4595 59.4165C79.7054 59.6572 79.8989 59.9423 80.0402 60.2719C80.1867 60.5962 80.2599 60.9467 80.2599 61.3234C80.2599 61.7053 80.1867 62.061 80.0402 62.3906C79.8989 62.715 79.7054 62.9975 79.4595 63.2381C79.2136 63.4736 78.9259 63.6593 78.5963 63.7953C78.2667 63.9313 77.9136 63.9993 77.5369 63.9993C77.1602 63.9993 76.8045 63.9313 76.4697 63.7953C76.1401 63.6593 75.8523 63.471 75.6064 63.2303C75.3658 62.9896 75.1748 62.7071 75.0336 62.3828C74.8923 62.0532 74.8217 61.7001 74.8217 61.3234C74.8217 60.9467 74.8923 60.5962 75.0336 60.2719C75.1748 59.9423 75.3684 59.6572 75.6143 59.4165C75.8602 59.1758 76.1479 58.9875 76.4775 58.8515C76.8071 58.7155 77.1602 58.6475 77.5369 58.6475ZM77.5447 59.4087C77.2779 59.4087 77.0294 59.4584 76.7992 59.5578C76.5743 59.6519 76.3781 59.7827 76.2107 59.9501C76.0485 60.1175 75.9203 60.3189 75.8262 60.5544C75.732 60.7898 75.6849 61.0435 75.6849 61.3156C75.6849 61.5928 75.732 61.8492 75.8262 62.0846C75.9203 62.32 76.0485 62.524 76.2107 62.6967C76.3781 62.8641 76.5743 62.9975 76.7992 63.0969C77.0294 63.1911 77.2779 63.2381 77.5447 63.2381C77.8115 63.2381 78.0574 63.1911 78.2824 63.0969C78.5073 62.9975 78.7035 62.8641 78.8709 62.6967C79.0383 62.524 79.1691 62.32 79.2633 62.0846C79.3575 61.8492 79.4046 61.5928 79.4046 61.3156C79.4046 61.0435 79.3575 60.7924 79.2633 60.5622C79.1691 60.3268 79.0383 60.1254 78.8709 59.958C78.7035 59.7853 78.5073 59.6519 78.2824 59.5578C78.0574 59.4584 77.8115 59.4087 77.5447 59.4087Z" fill="#232020"/>
  <path d="M69.65 58.6475C70.1366 58.6475 70.5708 58.7573 70.9527 58.977C71.3398 59.1915 71.6459 59.4793 71.8708 59.8403L71.243 60.3032C71.0599 60.0207 70.835 59.801 70.5682 59.6441C70.3014 59.4871 69.9953 59.4087 69.65 59.4087C69.3832 59.4087 69.1347 59.4584 68.9045 59.5578C68.6796 59.6519 68.4834 59.7853 68.316 59.958C68.1486 60.1254 68.0178 60.3268 67.9236 60.5622C67.8294 60.7924 67.7824 61.0461 67.7824 61.3234C67.7824 61.6007 67.8294 61.857 67.9236 62.0924C68.0178 62.3226 68.1486 62.524 68.316 62.6967C68.4834 62.8641 68.6796 62.9975 68.9045 63.0969C69.1347 63.1911 69.3832 63.2381 69.65 63.2381C69.9953 63.2381 70.3014 63.1597 70.5682 63.0027C70.835 62.8458 71.0599 62.6261 71.243 62.3436L71.8708 62.8065C71.6511 63.1675 71.3477 63.4579 70.9605 63.6776C70.5734 63.8921 70.1366 63.9993 69.65 63.9993C69.2681 63.9993 68.9124 63.9313 68.5828 63.7953C68.2532 63.6593 67.9655 63.4736 67.7196 63.2381C67.4737 62.9975 67.2801 62.715 67.1389 62.3906C66.9976 62.061 66.927 61.7053 66.927 61.3234C66.927 60.9467 66.9976 60.5962 67.1389 60.2719C67.2801 59.9423 67.4737 59.6572 67.7196 59.4165C67.9655 59.1758 68.2532 58.9875 68.5828 58.8515C68.9124 58.7155 69.2681 58.6475 69.65 58.6475Z" fill="#232020"/>
  <path d="M56.3793 58.8521C56.1612 58.7723 55.9165 58.7324 55.6452 58.7324H53.73V59.4825H54.5759H55.6292C55.9325 59.4825 56.1639 59.565 56.3235 59.7299C56.4884 59.8895 56.5708 60.097 56.5708 60.3523C56.5708 60.6077 56.4884 60.8151 56.3235 60.9747C56.1639 61.1343 55.9325 61.2141 55.6292 61.2141H54.5759H53.73V61.9642V63.9991H54.5759V61.9642H55.5335L57.0416 63.9991H58.0072L56.4192 61.8286C56.7384 61.7062 56.9884 61.5174 57.1693 61.262C57.3502 61.0013 57.4406 60.6954 57.4406 60.3443C57.4406 60.1049 57.3981 59.8868 57.313 59.69C57.2278 59.4932 57.1055 59.3229 56.9459 59.1793C56.7916 59.0357 56.6028 58.9266 56.3793 58.8521Z" fill="#232020"/>
  <path d="M50.3461 63.9141H51.2409L48.9569 58.6475H48.6743L46.3903 63.9141H47.2772L48.8156 60.1937L50.3461 63.9141Z" fill="#E1251B"/>
  <path d="M43.9011 59.4905H42.1296V63.9991H41.2838V59.4905H39.5123V58.7324H43.9011V59.4905Z" fill="#232020"/>
  <path d="M35.2856 58.6475C35.6614 58.6475 35.9909 58.735 36.2741 58.91C36.5572 59.0799 36.776 59.2961 36.9305 59.5587L36.359 59.9989C36.2252 59.8032 36.0682 59.6514 35.888 59.5433C35.7078 59.4351 35.507 59.3811 35.2856 59.3811C35.0797 59.3811 34.8995 59.4326 34.7451 59.5355C34.5906 59.6333 34.5134 59.7878 34.5134 59.9989C34.5134 60.0967 34.5314 60.1816 34.5674 60.2537C34.6035 60.3206 34.6524 60.3824 34.7142 60.439C34.776 60.4905 34.8506 60.5394 34.9381 60.5858C35.0256 60.627 35.1209 60.6733 35.2238 60.7248L35.7953 60.9873C35.9858 61.0749 36.1583 61.1675 36.3127 61.2653C36.4671 61.3632 36.5959 61.4713 36.6988 61.5897C36.8018 61.7029 36.8816 61.8291 36.9382 61.9681C36.9948 62.1071 37.0232 62.2641 37.0232 62.4391C37.0232 62.6657 36.9794 62.8716 36.8919 63.0569C36.8044 63.2371 36.6834 63.3916 36.5289 63.5203C36.3745 63.6438 36.1917 63.7416 35.9806 63.8137C35.7747 63.8806 35.5508 63.9141 35.3088 63.9141C34.8815 63.9141 34.5031 63.8163 34.1736 63.6207C33.8441 63.4199 33.5816 63.1496 33.3859 62.8098L33.9651 62.3696C34.0372 62.4778 34.117 62.5807 34.2045 62.6785C34.2972 62.7763 34.3976 62.8639 34.5057 62.9411C34.6138 63.0132 34.7322 63.0724 34.8609 63.1187C34.9948 63.1599 35.1415 63.1805 35.3011 63.1805C35.5636 63.1805 35.7747 63.1187 35.9343 62.9951C36.099 62.8664 36.1814 62.6914 36.1814 62.47C36.1814 62.3722 36.1634 62.2873 36.1274 62.2152C36.0913 62.138 36.0398 62.071 35.9729 62.0144C35.906 61.9578 35.8262 61.9063 35.7335 61.86C35.646 61.8085 35.5456 61.757 35.4324 61.7055L34.8686 61.443C34.7039 61.3657 34.5494 61.2834 34.4053 61.1958C34.2611 61.1083 34.135 61.0079 34.0269 60.8947C33.9188 60.7814 33.8338 60.6553 33.772 60.5163C33.7103 60.3721 33.6794 60.21 33.6794 60.0298C33.6794 59.8187 33.7206 59.6282 33.8029 59.4583C33.8905 59.2884 34.0063 59.1443 34.1504 59.0259C34.2997 58.9023 34.4696 58.8096 34.6601 58.7479C34.8557 58.6809 35.0643 58.6475 35.2856 58.6475Z" fill="#232020"/>
  <path d="M29.1333 61.3179L30.8969 63.9991H29.9313L28.6545 62.044L27.3858 63.9991H26.4122L28.1917 61.3179L26.5239 58.7324H27.4975L28.6545 60.5997L29.8116 58.7324H30.7772L29.1333 61.3179Z" fill="#232020"/>
  <path d="M23.9232 63.2402H20.4598V63.9983H23.9232V63.2402Z" fill="#232020"/>
  <path d="M23.0218 60.9443H20.4596V61.6785H23.0218V60.9443Z" fill="#232020"/>
  <path d="M20.4598 59.4895H23.923V58.7314H20.4598V59.4895Z" fill="#232020"/>
  <path d="M17.1519 62.1766V58.7324H17.9704V63.9141H17.6924L14.588 60.385V63.8292H13.7695V58.6475H14.0475L17.1519 62.1766Z" fill="#232020"/>
  <path d="M4.84965 63.913H3.95505L3.58623 63.0498H1.25557L0.886748 63.913H0L2.28357 58.6475H2.56608L4.84965 63.913ZM1.55377 62.3357H3.28018L2.42482 60.1934L1.55377 62.3357Z" fill="#232020"/>
  <defs>
    <clipPath id="clip0_1776_422">
      <rect width="135.376" height="51.5927" fill="white"/>
    </clipPath>
  </defs>
</svg>