<svg width="1200" height="630" version="1.1" viewBox="0 0 317.5 166.69" xml:space="preserve" xmlns="http://www.w3.org/2000/svg" xmlns:xlink="http://www.w3.org/1999/xlink"><defs><linearGradient id="a" x1=".5" x2=".5" y2="1"><stop stop-color="#f34599" offset="0"/><stop stop-color="#14ffa5" offset="1"/></linearGradient><linearGradient id="b" x1=".5" x2=".5" y2="1"><stop stop-color="hsl(157, 100%, 54%)" offset="0"/><stop stop-color="#f34599" offset="1"/></linearGradient><linearGradient id="m" x1="377.64" x2="377.64" y1="235.99" y2="611.37" gradientTransform="scale(1.0592 .94411)" gradientUnits="userSpaceOnUse" xlink:href="#b"/><filter id="d" x="-.16267" y="-.090667" width="1.3253" height="1.1813" color-interpolation-filters="sRGB"><feGaussianBlur x="0%" y="0%" width="100%" height="100%" edgeMode="none" in="SourceGraphic" result="blur" stdDeviation="17 8"/></filter><linearGradient id="l" x1="430.6" x2="430.6" y1="192.51" y2="572.94" gradientTransform="scale(.95681 1.0451)" gradientUnits="userSpaceOnUse" xlink:href="#b"/><filter id="c" x="-.10667" y="-.16267" width="1.2133" height="1.3253" color-interpolation-filters="sRGB"><feGaussianBlur x="0%" y="0%" width="100%" height="100%" edgeMode="none" in="SourceGraphic" result="blur" stdDeviation="10 17"/></filter><linearGradient id="k" x1="405.51" x2="405.51" y1="192.51" y2="572.94" gradientTransform="scale(.95681 1.0451)" gradientUnits="userSpaceOnUse" xlink:href="#b"/><linearGradient id="n" x1="400" x2="400" y1="242" y2="558" gradientTransform="matrix(.26458 0 0 .26458 157.37 435.45)" gradientUnits="userSpaceOnUse" xlink:href="#b"/><linearGradient id="j" x1="140.96" x2="484.15" y1="468.49" y2="468.49" gradientTransform="translate(0,-1.5)" gradientUnits="userSpaceOnUse" xlink:href="#a"/><linearGradient id="i" x1="352.12" x2="695.3" y1="468.49" y2="468.49" gradientUnits="userSpaceOnUse" xlink:href="#a"/><linearGradient id="h" x1="479.34" x2="747.35" y1="476.11" y2="476.11" gradientTransform="translate(65.479 .488)" gradientUnits="userSpaceOnUse" xlink:href="#a"/><linearGradient id="g" x1="45.65" x2="95.25" y1="5.29" y2="5.29" gradientUnits="userSpaceOnUse" xlink:href="#a"/><linearGradient id="f" x1="11.74" x2="44.13" y1="5.295" y2="5.295" gradientUnits="userSpaceOnUse" xlink:href="#a"/><linearGradient id="e" x1="-294.69" x2="509.19" y1="89.716" y2="89.716" gradientTransform="translate(-2.1503 3.9821)" gradientUnits="userSpaceOnUse"><stop stop-color="#8c95a1" offset="0"/><stop stop-color="#cbd1d9" offset="1"/></linearGradient></defs><rect x="-296.84" y="-161.44" width="803.89" height="510.28" rx="1.0583" fill="url(#e)" stroke-miterlimit="20" stroke-width="0" style="paint-order:stroke fill markers"/><g transform="translate(-115.36 -484.76)"><g transform="matrix(.47256 0 0 .47256 48.747 411.28)" fill="none"><g clip-rule="evenodd" fill-rule="evenodd"><g stroke="#fff" stroke-width="11"><path d="m152.88 502.78s61.601-71.859 148.15-72.868c86.947-1.014 156.12 70.408 162.49 74.097z" fill="url(#j)"/><path d="m364.04 504.28s61.6-71.859 148.15-72.868c86.946-1.014 156.12 70.408 162.49 74.097z" fill="url(#i)"/><path d="m556.42 505.02s46.905-57.094 112.81-57.896c66.204-0.805 118.88 55.941 123.73 58.872z" fill="url(#h)"/></g><path d="m276.98 503.32v-28.271z" fill="#c4c9cf"/><path d="m294.65 503.32v-20.025z" fill="#fff"/></g><path d="m294.65 503.32v-20.025" stroke="#fff" stroke-width="11"/><path d="m260.49 503.32v-20.025z" clip-rule="evenodd" fill="#fff" fill-rule="evenodd"/><path d="m260.49 503.32v-20.025" stroke="#fff" stroke-width="11"/><g fill="#fff"><path d="m441.44 504.34v-28.271z" clip-rule="evenodd" fill-rule="evenodd"/><path d="m441.44 504.34v-28.271" stroke="#fff" stroke-width="11"/><path d="m459.11 504.34v-20.025z" clip-rule="evenodd" fill-rule="evenodd"/></g><path d="m459.11 504.34v-20.025" stroke="#fff" stroke-width="11"/><path d="m424.95 504.34v-20.025z" clip-rule="evenodd" fill="#fff" fill-rule="evenodd"/><path d="m424.95 504.34v-20.025" stroke="#fff" stroke-width="11"/><path d="m645.49 506.37v-28.27z" clip-rule="evenodd" fill="#fff" fill-rule="evenodd"/><path d="m645.49 506.37v-28.27" stroke="#fff" stroke-width="11"/><path d="m663.16 506.37v-20.025z" clip-rule="evenodd" fill="#fff" fill-rule="evenodd"/><path d="m663.16 506.37v-20.025" stroke="#fff" stroke-width="11"/><path d="m629 506.37v-20.025z" clip-rule="evenodd" fill="#fff" fill-rule="evenodd"/><path d="m629 506.37v-20.025" stroke="#fff" stroke-width="11"/><path d="m276.98 503.32v-28.271" fill="#fff" stroke="#fff" stroke-width="11"/></g></g><g transform="matrix(.5811 0 0 .5811 -91.103 -18.364)" fill="none"><path d="m259.02 128.59h58.931c5.5317 0 5.2778-4.5569 3.4712-6.1448-1.8522-1.6277-5.5116-0.96734-5.5116-0.96734s-1.0892-3.0656-4.6753-4.5578c-3.1717-1.3199-6.4947-0.69152-6.4947-0.69152s0-2.104-2.0312-3.8461c-2.0312-1.7422-4.7389-1.5729-4.7389-1.5729s-1.8615-11.6-14.301-11.6c-12.44 0-13.878 10.923-13.878 10.923s-2.7924 0-4.8236 1.8628c-2.0312 1.8628-2.2846 3.9794-2.2846 3.9794s-6.7924-0.9156-8.8012 4.9468c-1.1971 3.494 1.2625 7.669 5.1388 7.669z" fill="#fff" stroke-width=".4385"/><path d="m654.95 149.89h-32.119c-2.6002 0-3.722-3.2912-1.5934-4.7517l0.0902-0.0614c3.0303-2.0362 7.0072-1.8513 7.0072-1.8513s0.56819-11.014 11.268-11.014c5.2899 0 9.5655 8.8394 9.5655 8.8394s7.1962 0 8.3872 5.5534c0.36008 1.6828-0.84703 3.2856-2.6062 3.2856z" fill="#fff" stroke-width=".3743"/><path d="m259.42 89.317h-52.246c-4.671 0-6.684-5.999-2.861-8.659a6.62 6.62 0 0 1 0.162-0.113c5.442-3.71 12.585-3.373 12.585-3.373s1.019-20.073 20.237-20.073c17.375 0 24.303 16.913 26.802 26.231 0.812 3.027-1.521 5.987-4.679 5.987z" fill="#f9f9f9"/><path d="m591.38 101.4h56.288c5.0324 0 7.2006-6.5662 3.0825-9.4779a12.427 12.427 0 0 0-0.17423-0.12407c-5.864-4.0601-13.559-3.6914-13.559-3.6914s-1.0982-21.971-21.803-21.971c-18.719 0-26.184 18.512-28.876 28.712-0.87467 3.313 1.6385 6.553 5.0412 6.553z" fill="#f2f2f2" stroke-width=".87995"/><g fill="#fff"><path d="m321.82 83.114h31.622c2.8272 0 4.0453-3.6884 1.7317-5.3247a6.9521 6.9521 0 0 0-0.0979-0.0692c-3.2944-2.2814-7.6175-2.0738-7.6175-2.0738s-0.61695-12.344-12.249-12.344c-10.516 0-14.71 10.4-16.222 16.13-0.49138 1.8617 0.92049 3.6815 2.8322 3.6815z" stroke-width=".49435"/><path d="m564.55 128.06c6.9888 0 3.7188-11.015-5.1352-8.3838-0.49033-15.294-25.572-26.484-35.944-5.8562-2.9325-2.306-9.5173 2.05-8.059 5.8562-3.2574 0.27583-5.8198 0.65021-7.8136 1.1465-4.6033 1.1453-3.6919 7.1855 1.0531 7.1432z" stroke-width=".39574"/><path d="m460.4 94.337c5.7554 0 3.0624-9.1268-4.229-6.9467-0.40388-12.673-21.059-21.945-29.601-4.8523-2.415-1.9109-7.8377 1.6983-6.6368 4.8523-2.6823 0.22857-4.7927 0.53898-6.4343 0.94963-3.7913 0.94915-3.0407 5.954 0.86682 5.9191z" stroke-width=".48426"/></g></g><g transform="translate(-3.1822e-8 -.56747)"><g transform="matrix(.50302 0 0 .50302 34.26 -318.28)"><path transform="matrix(1.988 0 0 1.988 141.14 837.75)" d="m15.24 0.78v9.02h-0.73v-9.02zm2.78 0v0.66h-6.28v-0.66zm6.92 4.04v0.66h-4.89v-0.66zm-4.73-4.04v9.02h-0.73v-9.02zm5.34 0v9.02h-0.74v-9.02zm3.08 0v9.02h-0.73v-9.02zm2.32 0h2.66q0.86 0 1.48 0.3 0.62 0.31 0.96 0.9 0.34 0.6 0.34 1.46 0 0.64-0.24 1.16t-0.67 0.87q-0.42 0.34-1 0.47l-0.23 0.1h-2.8l-0.02-0.66h2.32q0.64 0 1.06-0.27 0.43-0.27 0.64-0.72 0.21-0.44 0.21-0.95 0-0.62-0.24-1.06-0.22-0.46-0.68-0.7t-1.13-0.24h-1.91v8.37h-0.74zm5.01 9.03-2.1-4.04h0.79l2.09 3.96v0.08zm4.66 0h-1.83v-0.66h1.83q0.88 0 1.5-0.38t0.96-1.08q0.33-0.71 0.33-1.69v-1.43q0-0.75-0.19-1.33-0.2-0.58-0.55-0.98-0.36-0.4-0.86-0.6-0.51-0.22-1.15-0.22h-1.91v-0.66h1.91q0.77 0 1.4 0.26 0.64 0.25 1.11 0.75 0.47 0.49 0.71 1.2 0.25 0.7 0.25 1.6v1.41q0 0.9-0.25 1.6t-0.72 1.2q-0.46 0.5-1.1 0.75-0.65 0.26-1.44 0.26zm-1.5-9.03v9.02h-0.74v-9.02z" fill="url(#f)" style="font-variation-settings:'wdth' 85, 'wght' 300" aria-label="THIRD"/><path transform="matrix(1.988 0 0 1.988 141.14 837.75)" d="m48.58 5.59h-2.01l-0.02-0.97h1.85q0.44 0 0.77-0.17 0.33-0.18 0.52-0.5t0.19-0.77q0-0.5-0.17-0.8-0.16-0.32-0.49-0.46-0.33-0.15-0.84-0.15h-1.55v8.03h-1.18v-9.02h2.73q0.64 0 1.12 0.14 0.5 0.14 0.85 0.43 0.35 0.3 0.53 0.75t0.18 1.08q0 0.56-0.27 1.01-0.26 0.45-0.73 0.74t-1.1 0.36zm-0.05 4.22h-2.43l0.67-0.99h1.77q0.5 0 0.84-0.2 0.35-0.2 0.53-0.56t0.18-0.85q0-0.5-0.16-0.86-0.15-0.36-0.48-0.56t-0.86-0.2h-1.56l0.01-0.97h2.12l0.26 0.35q0.6 0.05 1 0.37 0.42 0.31 0.63 0.8t0.21 1.06q0 0.84-0.33 1.43-0.34 0.57-0.95 0.88-0.6 0.3-1.44 0.3zm4.45-9.03h2.72q0.94 0 1.57 0.3 0.65 0.32 0.98 0.92t0.33 1.49q0 0.62-0.22 1.14-0.22 0.5-0.64 0.86t-1.02 0.53l-0.32 0.13h-2.48l-0.01-0.98h1.82q0.56 0 0.94-0.23t0.56-0.6q0.2-0.39 0.2-0.85 0-0.52-0.18-0.9-0.17-0.4-0.55-0.6-0.37-0.22-0.98-0.22h-1.54v8.03h-1.18zm4.7 9.03-1.95-4.1h1.23l1.99 4.02v0.08zm5.58-8.21-2.66 8.2h-1.21l3.12-9.01h0.76zm2.19 8.2-2.67-8.2-0.02-0.82h0.77l3.13 9.03zm-0.06-3.34v1h-4.64v-1zm7.3 0.47h1.18q-0.06 0.9-0.42 1.58t-1.03 1.05-1.67 0.37q-0.73 0-1.32-0.28-0.58-0.28-1-0.8-0.42-0.51-0.65-1.25-0.22-0.73-0.22-1.63v-1.35q0-0.91 0.22-1.64 0.23-0.73 0.66-1.25 0.42-0.52 1.03-0.8 0.62-0.28 1.38-0.28 0.94 0 1.6 0.37t1 1.04q0.36 0.68 0.42 1.62h-1.18q-0.06-0.68-0.27-1.13-0.2-0.45-0.58-0.68-0.38-0.22-1-0.22-0.53 0-0.92 0.2t-0.66 0.6q-0.26 0.4-0.39 0.94t-0.13 1.21v1.37q0 0.62 0.11 1.16 0.12 0.54 0.35 0.95 0.25 0.4 0.62 0.63 0.39 0.23 0.93 0.23 0.67 0 1.07-0.21t0.6-0.67q0.2-0.45 0.27-1.13zm3.92-6.15v9.02h-1.18v-9.02zm4.9 0-3.36 4.21-1.93 2.2-0.2-1.3 1.43-1.75 2.64-3.36zm-1.17 9.02-2.91-4.4 0.71-0.96 3.61 5.36zm7.66-0.98v0.99h-4.26v-0.99zm-4.04-8.04v9.02h-1.18v-9.02zm3.46 3.87v0.99h-3.7v-0.99zm0.51-3.87v0.99h-4.2v-1zm4.74 0v9.02h-1.17v-9.02zm2.58 0v0.99h-6.33v-1z" fill="url(#g)" style="font-variation-settings:'wdth' 85, 'wght' 405" aria-label="BRACKET"/></g><g transform="matrix(.50302 0 0 .50302 26.352 -197.4)"><path d="m282.8 508.08-30.196 10.215 0.16962 47.109 29.476 9.0793a39.064 39.064 0 0 0 9.3167-7.8079l-27.746-8.9523 0.34756-33.35 27.068-9.1556a39.064 39.064 0 0 0-8.4353-7.1377z" fill="#fff" style="mix-blend-mode:normal;paint-order:markers fill stroke"/><g fill="none"><circle cx="263.21" cy="541.28" r="39.688" stroke="url(#n)" stroke-width="4.2333"/><g stroke-width="16"><circle transform="matrix(.26458 0 0 .26458 157.37 435.45)" cx="400" cy="400" r="150" filter="url(#d)" stroke="url(#m)"/><circle transform="matrix(.26458 0 0 .26458 157.37 435.45)" cx="412" cy="400" r="150" filter="url(#c)" opacity=".25" stroke="url(#l)"/><circle transform="matrix(.26458 0 0 .26458 157.37 435.45)" cx="388" cy="400" r="150" filter="url(#c)" opacity=".25" stroke="url(#k)"/></g></g></g></g></svg>
