<?xml version="1.0" encoding="UTF-8" standalone="no"?>
<svg
   width="120"
   height="30"
   version="1.1"
   viewBox="0 0 31.75 7.93725"
   xml:space="preserve"
   id="svg3"
   sodipodi:docname="pob.svg"
   inkscape:version="1.3 (1:1.3+202307231459+0e150ed6c4)"
   xmlns:inkscape="http://www.inkscape.org/namespaces/inkscape"
   xmlns:sodipodi="http://sodipodi.sourceforge.net/DTD/sodipodi-0.dtd"
   xmlns="http://www.w3.org/2000/svg"
   xmlns:svg="http://www.w3.org/2000/svg"><defs
     id="defs3" /><sodipodi:namedview
     id="namedview3"
     pagecolor="#ffffff"
     bordercolor="#000000"
     borderopacity="0.25"
     inkscape:showpageshadow="2"
     inkscape:pageopacity="0.0"
     inkscape:pagecheckerboard="0"
     inkscape:deskcolor="#d1d1d1"
     inkscape:zoom="3.2666667"
     inkscape:cx="59.999999"
     inkscape:cy="19.897959"
     inkscape:window-width="1280"
     inkscape:window-height="656"
     inkscape:window-x="0"
     inkscape:window-y="27"
     inkscape:window-maximized="1"
     inkscape:current-layer="svg3" /><g
     transform="matrix(0.25420513,0,0,0.25420513,-0.11759637,-0.11086671)"
     stroke-width="0"
     id="g3"><path
       d="M 0.46260425,17.100969 V 0.80291937 H 6.9818242 q 2.93824,0 4.5909998,1.42321003 1.675715,1.42321 1.675715,3.90235 0,2.4791399 -1.675715,3.9253046 -1.6527598,1.42321 -4.5909998,1.42321 h -3.03006 v 5.623975 z M 3.9517642,8.5387543 h 2.823465 q 1.3773,0 2.134815,-0.59683 0.757515,-0.619785 0.757515,-1.8134449 0,-1.19366 -0.757515,-1.79049 -0.757515,-0.59683 -2.134815,-0.59683 H 3.9517642 Z M 15.42923,17.100969 V 0.80291937 h 7.139005 q 1.79049,0 3.098925,0.59683003 1.308435,0.59683 2.02004,1.69867 0.73456,1.078885 0.73456,2.57096 0,1.4920749 -0.803425,2.5250499 -0.78047,1.032975 -2.06595,1.42321 2.410275,0.344325 2.61687,2.8005097 l 0.41319,4.68282 H 25.02442 l -0.298415,-4.1319 q -0.06887,-0.941155 -0.59683,-1.3773 -0.50501,-0.4591 -1.74458,-0.4591 H 18.91839 v 5.9683 z M 18.91839,8.2173843 H 22.178 q 1.262525,0 1.951175,-0.573875 0.711605,-0.59683 0.711605,-1.6757149 0,-1.10184 -0.711605,-1.65276 -0.711605,-0.573875 -2.06595,-0.573875 H 18.91839 Z m 19.373958,9.2508647 q -2.47914,0 -4.26963,-1.032975 -1.767535,-1.032975 -2.731645,-2.93824 -0.941155,-1.905265 -0.941155,-4.5221347 0,-2.6168699 0.941155,-4.5221349 0.96411,-1.92822 2.731645,-2.961195 1.79049,-1.05593003 4.26963,-1.05593003 2.47914,0 4.246675,1.05593003 1.79049,1.032975 2.731645,2.961195 0.96411,1.905265 0.96411,4.5221349 0,2.6168697 -0.96411,4.5221347 -0.941155,1.905265 -2.731645,2.93824 -1.767535,1.032975 -4.246675,1.032975 z m 0,-2.93824 q 2.042995,0 3.190745,-1.446165 1.14775,-1.46912 1.14775,-4.1089447 0,-2.6398249 -1.14775,-4.1089449 -1.14775,-1.492075 -3.190745,-1.492075 -2.042995,0 -3.190745,1.492075 -1.14775,1.46912 -1.14775,4.1089449 0,2.6398247 1.14775,4.1089447 1.14775,1.446165 3.190745,1.446165 z m 10.237891,2.57096 V 0.80291937 h 5.623975 q 3.94826,0 6.083075,2.13481503 2.15777,2.11186 2.15777,6.0371649 0,3.9023497 -2.11186,6.0142097 -2.11186,2.11186 -5.991255,2.11186 z m 3.48916,-2.93824 h 2.134815 q 2.364365,0 3.48916,-1.262525 1.14775,-1.28548 1.14775,-3.9482597 0,-2.6398249 -1.14775,-3.9253049 -1.124795,-1.28548 -3.48916,-1.28548 h -2.134815 z m 19.41991,3.30552 q -2.06595,0 -3.58098,-0.757515 -1.492075,-0.78047 -2.318455,-2.180725 -0.82638,-1.400255 -0.82638,-3.30552 V 0.77996437 h 3.48916 V 11.224489 q 0,1.583895 0.82638,2.456185 0.849335,0.849335 2.410275,0.849335 1.537985,0 2.364365,-0.849335 0.849335,-0.87229 0.849335,-2.456185 V 0.77996437 h 3.48916 V 11.224489 q 0,1.905265 -0.82638,3.30552 -0.803425,1.400255 -2.318455,2.180725 -1.51503,0.757515 -3.558025,0.757515 z m 16.665309,0 q -2.226635,0 -3.94826,-1.01002 -1.721625,-1.01002 -2.70869,-2.915285 -0.987065,-1.905265 -0.987065,-4.5680447 0,-2.5939149 0.941155,-4.4991799 0.96411,-1.92822 2.685735,-2.98415 1.74458,-1.05593003 4.08599,-1.05593003 3.190745,0 4.95828,1.58389503 1.767535,1.56094 2.2955,4.4762249 l -3.62689,0.13773 q -0.27546,-1.5379849 -1.19366,-2.3873199 -0.9182,-0.87229 -2.43323,-0.87229 -1.951175,0 -3.03006,1.537985 -1.078885,1.51503 -1.078885,4.0630349 0,2.5709597 1.10184,4.0630347 1.10184,1.492075 2.98415,1.492075 1.629805,0 2.548005,-0.9182 0.9182,-0.941155 1.14775,-2.593915 l 3.649845,0.13773 q -0.50501,2.98415 -2.364365,4.659865 -1.8364,1.65276 -5.027145,1.65276 z m 13.015442,-0.36728 V 3.7411594 H 96.253599 V 0.80291937 H 109.52159 V 3.7411594 h -4.88942 V 17.100969 Z m 15.86186,0.36728 q -3.16779,0 -4.98123,-1.56094 -1.79049,-1.56094 -1.97413,-4.17781 l 3.51211,-0.160685 q 0.2066,1.446165 1.05593,2.226635 0.84934,0.78047 2.43323,0.78047 1.28548,0 1.99709,-0.4591 0.73456,-0.482055 0.73456,-1.42321 0,-0.573875 -0.27546,-0.987065 -0.27546,-0.436145 -1.05593,-0.78047 -0.78047,-0.36728 -2.2955,-0.711605 -2.08891,-0.4820547 -3.37439,-1.0788847 -1.26252,-0.59683 -1.8364,-1.492075 -0.57387,-0.9182 -0.57387,-2.2954999 0,-1.446165 0.7116,-2.548005 0.73456,-1.124795 2.11186,-1.74458 1.3773,-0.61978503 3.28257,-0.61978503 2.02004,0 3.42029,0.71160503 1.40026,0.711605 2.18073,1.951175 0.78047,1.23957 0.96411,2.84642 l -3.48916,0.18364 q -0.13773,-1.262525 -0.94116,-2.02004 -0.78047,-0.78047 -2.18072,-0.78047 -1.19366,0 -1.88231,0.527965 -0.6657,0.527965 -0.6657,1.3773 0,0.59683 0.29842,1.01002 0.29841,0.3902349 1.03297,0.6886499 0.73456,0.298415 2.06595,0.573875 2.27255,0.4591 3.58098,1.170705 1.30844,0.68865 1.85936,1.6527597 0.57387,0.96411 0.57387,2.20368 0,1.51503 -0.78047,2.639825 -0.75751,1.10184 -2.18072,1.69867 -1.40026,0.59683 -3.32848,0.59683 z"
       id="text1"
       style="font-weight:bold;font-size:22.955px;font-family:Geist;paint-order:stroke fill markers"
       aria-label="PRODUCTS" /><path
       d="M 21.70298,31.41951 V 20.72904 h 4.155732 q 1.987524,0 3.041514,0.707679 1.05399,0.692622 1.05399,2.198322 0,0.963648 -0.572166,1.565928 -0.572166,0.587223 -1.641213,0.692622 1.294902,0.105399 1.972467,0.782964 0.692622,0.677565 0.692622,1.791783 0,1.490643 -1.05399,2.228436 -1.038933,0.722736 -2.981286,0.722736 z m 2.288664,-6.263712 h 1.80684 q 0.843192,0 1.340073,-0.316197 0.511938,-0.331254 0.511938,-0.963648 0,-0.662508 -0.496881,-0.963648 -0.481824,-0.316197 -1.35513,-0.316197 h -1.80684 z m 0,4.396644 h 2.273607 q 0.813078,0 1.325016,-0.331254 0.511938,-0.331254 0.511938,-1.023876 0,-0.677565 -0.511938,-1.023876 -0.496881,-0.361368 -1.325016,-0.361368 h -2.273607 z m 7.00149,1.867068 3.854592,-10.69047 h 2.71026 l 3.854592,10.69047 h -2.379006 l -0.782964,-2.273607 h -4.110561 l -0.782964,2.273607 z m 3.794364,-4.155732 h 2.830716 L 36.202856,23.13816 Z m 7.633878,4.155732 V 20.72904 h 2.529576 l 4.246074,7.37793 V 20.72904 H 51.48569 V 31.41951 H 48.926 l -4.21596,-7.121961 v 7.121961 z m 15.508669,0.240912 q -1.550871,0 -2.650032,-0.707679 -1.099161,-0.707679 -1.701441,-1.95741 -0.587223,-1.264788 -0.587223,-2.906001 0,-1.611099 0.60228,-2.875887 0.60228,-1.264788 1.731555,-1.987524 1.144332,-0.737793 2.740374,-0.737793 2.077866,0 3.192084,1.023876 1.129275,1.023876 1.475586,2.725317 l -2.363949,0.105399 q -0.165627,-0.888363 -0.707679,-1.400301 -0.526995,-0.526995 -1.580985,-0.526995 -0.918477,0 -1.535814,0.481824 -0.60228,0.481824 -0.90342,1.309959 -0.286083,0.828135 -0.286083,1.882125 0,1.069047 0.286083,1.897182 0.30114,0.813078 0.90342,1.279845 0.617337,0.466767 1.580985,0.466767 1.05399,0 1.686384,-0.617337 0.632394,-0.617337 0.707679,-1.580985 h -2.439234 v -1.671327 h 4.682727 v 5.556033 h -1.415358 l -0.07528,-1.520757 q -0.421596,0.798021 -1.325016,1.279845 -0.888363,0.481824 -2.017638,0.481824 z M 64.585224,31.41951 V 20.72904 h 2.288664 v 8.763174 h 4.923639 v 1.927296 z m 7.739271,0 3.854592,-10.69047 h 2.71026 l 3.854592,10.69047 h -2.379006 l -0.782964,-2.273607 h -4.110561 l -0.782964,2.273607 z m 3.794364,-4.155732 h 2.830716 L 77.534217,23.13816 Z m 7.63388,4.155732 V 20.72904 h 3.688965 q 2.589804,0 3.990105,1.400301 1.415358,1.385244 1.415358,3.959991 0,2.55969 -1.385244,3.944934 -1.385244,1.385244 -3.929877,1.385244 z m 2.288664,-1.927296 h 1.400301 q 1.550871,0 2.288664,-0.828135 0.75285,-0.843192 0.75285,-2.589804 0,-1.731555 -0.75285,-2.574747 -0.737793,-0.843192 -2.288664,-0.843192 h -1.400301 z m 8.311441,1.927296 V 20.72904 H 101.791 v 1.927296 h -5.149491 v 2.454291 h 4.968811 v 1.897182 h -4.968811 v 2.484405 h 5.269951 v 1.927296 z m 13.596466,0.240912 q -2.07787,0 -3.26737,-1.023876 -1.17445,-1.023876 -1.2949,-2.740374 l 2.30372,-0.105399 q 0.13551,0.948591 0.69262,1.460529 0.55711,0.511938 1.59604,0.511938 0.8432,0 1.30996,-0.30114 0.48183,-0.316197 0.48183,-0.933534 0,-0.376425 -0.18069,-0.647451 -0.18068,-0.286083 -0.69262,-0.511938 -0.51194,-0.240912 -1.5057,-0.466767 -1.37019,-0.316197 -2.21338,-0.707679 -0.82813,-0.391482 -1.20456,-0.978705 -0.37642,-0.60228 -0.37642,-1.5057 0,-0.948591 0.46676,-1.671327 0.48183,-0.737793 1.38525,-1.144332 0.90342,-0.406539 2.15315,-0.406539 1.32501,0 2.24349,0.466767 0.91848,0.466767 1.43042,1.279845 0.51193,0.813078 0.63239,1.867068 l -2.28866,0.120456 q -0.0904,-0.828135 -0.61734,-1.325016 -0.51194,-0.511938 -1.43042,-0.511938 -0.78296,0 -1.23467,0.346311 -0.43665,0.346311 -0.43665,0.90342 0,0.391482 0.19574,0.662508 0.19574,0.255969 0.67756,0.45171 0.48183,0.195741 1.35513,0.376425 1.49065,0.30114 2.3489,0.767907 0.85824,0.45171 1.21961,1.084104 0.37643,0.632394 0.37643,1.445472 0,0.993762 -0.51194,1.731555 -0.49688,0.722736 -1.43042,1.114218 -0.91847,0.391482 -2.18326,0.391482 z m 5.78188,-0.240912 V 20.72904 h 2.28866 v 4.351473 h 4.05033 V 20.72904 h 2.28867 v 10.69047 h -2.28867 v -4.411701 h -4.05033 v 4.411701 z"
       id="text2"
       style="font-weight:bold;font-size:15.057px;font-family:Geist;fill:#008d66;paint-order:stroke fill markers"
       aria-label="BANGLADESH" /><path
       d="m 2.4276924,25.924347 q 0,-1.967099 1.1514727,-3.37217 1.1514726,-1.405071 2.9266596,-1.405071 1.3365307,0 2.0424931,0.726525 0.7059624,0.71967 0.7059624,2.049347 0,1.055517 -0.4249482,2.193281 -0.4180943,1.137765 -1.3776548,1.891705 -0.9527065,0.753941 -2.2892373,0.753941 -1.3228227,0 -2.0287851,-0.740233 -0.7059624,-0.747086 -0.7059624,-2.097325 z m 1.3708008,-0.08225 q 0,1.857435 1.5558588,1.857435 1.1583267,0 1.8368731,-1.124057 0.6854003,-1.124056 0.6854003,-2.597667 0,-1.768333 -1.5558588,-1.768333 -0.7882105,0 -1.3913628,0.562028 -0.5962983,0.562029 -0.8636045,1.439341 -0.2673061,0.877313 -0.2673061,1.631253 z M 15.62165,19.495292 q -0.520904,-0.191913 -0.808773,-0.191913 -1.240574,0 -1.583274,1.980807 h 1.699792 l -0.109664,0.897875 h -1.720355 l -1.158326,6.922544 q -0.164496,0.973268 -0.891021,1.576421 -0.726524,0.610006 -1.7614786,0.740232 L 9.1720323,30.61934 q 0.4112403,-0.08225 0.8430427,-0.555175 0.431802,-0.472926 0.520904,-0.95956 l 1.213159,-6.922544 h -1.034955 l 0.150788,-0.897875 h 1.007539 q 0.603152,-3.008907 3.022615,-3.008907 0.575737,0 0.973269,0.20562 z"
       id="text3"
       style="font-style:italic;font-size:14.037px;font-family:'Trebuchet MS';paint-order:stroke fill markers;image-rendering:optimizeQuality"
       aria-label="of" /></g></svg>
