<svg width="500" height="315" version="1.1" viewBox="0 0 20 12.6" xml:space="preserve" xmlns="http://www.w3.org/2000/svg"><defs><style>.cls-1{fill:none;}</style></defs><path d="m0.4396 0.43894 0.021367 7.3301 2.5397-0.01425v-4.6734l8.456 0.05589 0.0011-2.6915zm17.89 0.11246a1.2318 1.2318 0 0 0-1.2318 1.2318 1.2318 1.2318 0 0 0 1.2318 1.2318 1.2318 1.2318 0 0 0 1.2318-1.2318 1.2318 1.2318 0 0 0-1.2318-1.2318zm-3.7729 0.01076a1.2318 1.2318 0 0 0-1.2318 1.2318 1.2318 1.2318 0 0 0 1.2318 1.2318 1.2318 1.2318 0 0 0 1.2318-1.2318 1.2318 1.2318 0 0 0-1.2318-1.2318zm-9.8478 4.4707-0.015958 3.509h9.1513l3.0007 2.9998v-2.9998h2.3372l-0.0029-0.10157 0.03821-3.3065z" fill-opacity="0" stroke="#000" stroke-width=".87665"/></svg>
