<svg width="800" height="580" fill="#000000" version="1.1" viewBox="0 -2.47 54.012 39.159" xml:space="preserve" xmlns="http://www.w3.org/2000/svg"><defs><style>.cls-1{fill:none;}</style></defs><path d="m1.6312-2.47a1.5803 1.5803 0 0 0-1.5799 1.5833v15.587h3.1595v-14.007h47.642v22.508h-31.169l-3.0827 3.1595h35.832a1.5803 1.5803 0 0 0 1.5799-1.5799v-25.667a1.5803 1.5803 0 0 0-1.5799-1.5833zm35.338 10.103a3.1613 3.1613 0 0 0 0.15679 6.3187 3.166 3.166 0 0 0 3.1605-3.162 3.1613 3.1613 0 0 0-3.3173-3.1568zm-12.165 0.08272a3.1613 3.1613 0 0 0 0.15357 6.319 3.166 3.166 0 0 0 3.1627-3.1622 3.1613 3.1613 0 0 0-3.3163-3.1568zm-24.678 10.773v17.456a1.521 2.2964 0 0 0 0.07283 0.74438 1.3337 2.0136 0 0 0 0.46589-0.31627l18.422-17.884z" stroke-width=".78347"/></svg>
