<svg version="1.1" viewBox="0 0 24 24" xml:space="preserve" xmlns="http://www.w3.org/2000/svg"><path d="m5.9 0.48v18h18v-18zm8.8 7.3a1.5 1.5 0 0 1 0.14 0 1.5 1.5 0 0 1 0.14 0.013 1.5 1.5 0 0 1 0.14 0.027 1.5 1.5 0 0 1 0.13 0.04 1.5 1.5 0 0 1 0.13 0.052 1.5 1.5 0 0 1 0.12 0.065 1.5 1.5 0 0 1 0.12 0.075 1.5 1.5 0 0 1 0.11 0.086 1.5 1.5 0 0 1 0.1 0.098 1.5 1.5 0 0 1 0.092 0.11 1.5 1.5 0 0 1 0.08 0.11 1.5 1.5 0 0 1 0.069 0.12 1.5 1.5 0 0 1 0.059 0.13 1.5 1.5 0 0 1 0.046 0.13 1.5 1.5 0 0 1 0.033 0.14 1.5 1.5 0 0 1 0.019 0.14 1.5 1.5 0 0 1 0.0077 0.14 1.5 1.5 0 0 1-0.038 0.33 1.5 1.5 0 0 1-0.11 0.31 1.5 1.5 0 0 1-0.18 0.28 1.5 1.5 0 0 1-0.23 0.23 1.5 1.5 0 0 1-0.28 0.17 1.5 1.5 0 0 1-0.31 0.11 1.5 1.5 0 0 1-0.33 0.036l0.0019 0.0019a1.5 1.5 0 0 1-0.37-0.044 1.5 1.5 0 0 1-0.34-0.13 1.5 1.5 0 0 1-0.3-0.21 1.5 1.5 0 0 1-0.24-0.28 1.5 1.5 0 0 1-0.16-0.33 1.5 1.5 0 0 1-0.073-0.36 1.5 1.5 0 0 1 0.021-0.37 1.5 1.5 0 0 1 0.11-0.35 1.5 1.5 0 0 1 0.19-0.31 1.5 1.5 0 0 1 0.27-0.25 1.5 1.5 0 0 1 0.32-0.18 1.5 1.5 0 0 1 0.36-0.096 1.5 1.5 0 0 1 0.14-0.013zm-4.4 0.0019a1.5 1.5 0 0 1 0.34 0.021 1.5 1.5 0 0 1 0.32 0.1 1.5 1.5 0 0 1 0.29 0.17 1.5 1.5 0 0 1 0.24 0.23 1.5 1.5 0 0 1 0.19 0.28 1.5 1.5 0 0 1 0.12 0.32 1.5 1.5 0 0 1 0.038 0.34 1.5 1.5 0 0 1-0.036 0.33 1.5 1.5 0 0 1-0.11 0.31 1.5 1.5 0 0 1-0.17 0.28 1.5 1.5 0 0 1-0.23 0.23 1.5 1.5 0 0 1-0.28 0.17 1.5 1.5 0 0 1-0.31 0.11 1.5 1.5 0 0 1-0.33 0.038 1.5 1.5 0 0 1-0.35-0.04 1.5 1.5 0 0 1-0.33-0.12 1.5 1.5 0 0 1-0.29-0.2 1.5 1.5 0 0 1-0.24-0.26 1.5 1.5 0 0 1-0.17-0.31 1.5 1.5 0 0 1-0.09-0.34 1.5 1.5 0 0 1-0.0096-0.35 1.5 1.5 0 0 1 0.075-0.34 1.5 1.5 0 0 1 0.15-0.32 1.5 1.5 0 0 1 0.22-0.27 1.5 1.5 0 0 1 0.28-0.21 1.5 1.5 0 0 1 0.32-0.14 1.5 1.5 0 0 1 0.34-0.057zm8.8 0a1.5 1.5 0 0 1 0.34 0.021 1.5 1.5 0 0 1 0.33 0.1 1.5 1.5 0 0 1 0.29 0.17 1.5 1.5 0 0 1 0.24 0.23 1.5 1.5 0 0 1 0.19 0.28 1.5 1.5 0 0 1 0.11 0.32 1.5 1.5 0 0 1 0.04 0.34 1.5 1.5 0 0 1-0.036 0.33 1.5 1.5 0 0 1-0.11 0.31 1.5 1.5 0 0 1-0.18 0.28 1.5 1.5 0 0 1-0.23 0.23 1.5 1.5 0 0 1-0.28 0.17 1.5 1.5 0 0 1-0.31 0.11 1.5 1.5 0 0 1-0.33 0.038 1.5 1.5 0 0 1-0.35-0.042 1.5 1.5 0 0 1-0.33-0.12 1.5 1.5 0 0 1-0.29-0.2 1.5 1.5 0 0 1-0.23-0.26 1.5 1.5 0 0 1-0.17-0.31 1.5 1.5 0 0 1-0.09-0.34 1.5 1.5 0 0 1-0.0096-0.35 1.5 1.5 0 0 1 0.075-0.34 1.5 1.5 0 0 1 0.15-0.31 1.5 1.5 0 0 1 0.22-0.27 1.5 1.5 0 0 1 0.28-0.21 1.5 1.5 0 0 1 0.32-0.14 1.5 1.5 0 0 1 0.34-0.057zm-19 2v14h14v-3.1h-11v-11z" stroke="#000" stroke-width=".97"/></svg>
