<?xml version="1.0" encoding="UTF-8" standalone="no"?>
<svg
   version="1.1"
   viewBox="0 0 600 350"
   xml:space="preserve"
   id="svg47"
   sodipodi:docname="speed.svg"
   inkscape:version="1.3 (1:1.3+202307231459+0e150ed6c4)"
   xmlns:inkscape="http://www.inkscape.org/namespaces/inkscape"
   xmlns:sodipodi="http://sodipodi.sourceforge.net/DTD/sodipodi-0.dtd"
   xmlns="http://www.w3.org/2000/svg"
   xmlns:svg="http://www.w3.org/2000/svg"><sodipodi:namedview
     id="namedview47"
     pagecolor="#ffffff"
     bordercolor="#000000"
     borderopacity="0.25"
     inkscape:showpageshadow="2"
     inkscape:pageopacity="0.0"
     inkscape:pagecheckerboard="0"
     inkscape:deskcolor="#d1d1d1"
     inkscape:zoom="0.78166667"
     inkscape:cx="300"
     inkscape:cy="175.26652"
     inkscape:window-width="1280"
     inkscape:window-height="656"
     inkscape:window-x="0"
     inkscape:window-y="27"
     inkscape:window-maximized="1"
     inkscape:current-layer="g6" /><defs
     id="defs2"><radialGradient
       id="a"
       cx="249.79"
       cy="240.85"
       r="205.48"
       gradientTransform="matrix(1 0 0 .61735 0 92.162)"
       gradientUnits="userSpaceOnUse"><stop
         stop-color="#c65370"
         offset="0"
         id="stop1" /><stop
         stop-color="#737e8c"
         offset="1"
         id="stop2" /></radialGradient></defs><g
     transform="matrix(.7978 0 0 .7978 60.66 35.385)"
     id="g47"><rect
       transform="matrix(1.2534 0 0 1.2534 -76.034 -44.353)"
       x=".99548"
       y=".9955"
       width="598.01"
       height="348.01"
       fill-opacity="0"
       opacity=".4"
       stroke="#737e8c"
       stroke-dasharray="3.98199, 11.9459"
       stroke-linecap="square"
       stroke-linejoin="round"
       stroke-miterlimit="20"
       stroke-width="1.991"
       style="font-variation-settings:'wght' 700;paint-order:markers fill stroke"
       id="rect2" /><rect
       transform="matrix(1.2534 0 0 1.2534 -76.034 -44.353)"
       x="10.95"
       y="10.95"
       width="578.1"
       height="328.1"
       fill-opacity="0"
       opacity=".3"
       stroke="#737e8c"
       stroke-dasharray="3.80198999, 11.40599976"
       stroke-linecap="square"
       stroke-linejoin="round"
       stroke-miterlimit="20"
       stroke-width="1.901"
       style="font-variation-settings:'wght' 700;paint-order:markers fill stroke"
       id="rect3" /><g
       transform="matrix(1.3725 0 0 1.3725 -42.843 -156.47)"
       id="g46"><path
         d="m437.18 367.7c2.6-5.8 14.13-33.77 17.48-81.56 3.8-54-10.43-106.82-41.72-140.13s-57.84-25.28-89.13-17.24c-16.87 4.34-31.23-1.29-46.8-7.23-43.95-16.74-87.77-5.94-112.67 35.75-8.12 13.6-10.84 26.54-11.42 42.09s-0.75 32.21-12.12 44.26c-15.17 16.08-36 13.79-49.31 40.21s-15.17 52.84-22.76 58.58-13.27 4.59-19 11.49c-3.62 4.38-4.94 10.16-5.42 13.78z"
         fill="url(#a)"
         opacity=".3"
         id="path3" /><g
         stroke="#263238"
         stroke-linecap="round"
         stroke-linejoin="round"
         id="g6"><path
           d="m235.25 211.06h191.87a4.29 4.29 0 0 1 4.29 4.29v141.38h-200.41v-141.38a4.29 4.29 0 0 1 4.25-4.29z"
           fill="#c65370"
           id="path4" /><path
           d="m247 222.12h168.36a4.29 4.29 0 0 1 4.29 4.29v132.28h-176.93v-132.28a4.29 4.29 0 0 1 4.28-4.29z"
           fill="#263238"
           id="path5"
           style="fill:#737e8c;fill-opacity:1;opacity:0.5" /><path
           d="m429.46 368.5h-206.73c-10.83 0-19.62-6.56-19.62-14.65h246c-0.04 8.09-8.82 14.65-19.65 14.65z"
           fill="#c65370"
           id="path6" /><rect
           x="272.83"
           y="274.8"
           width="106.53"
           height="17.85"
           rx="5"
           fill="#fff"
           id="rect6" /></g><g
         fill="#c65370"
         stroke="#263238"
         stroke-linecap="round"
         stroke-linejoin="round"
         id="g11"><rect
           x="321.55"
           y="278.04"
           width="9.08"
           height="11.36"
           id="rect7" /><rect
           x="310.59"
           y="278.04"
           width="9.08"
           height="11.36"
           id="rect8" /><rect
           x="299.62"
           y="278.04"
           width="9.08"
           height="11.36"
           id="rect9" /><rect
           x="288.65"
           y="278.04"
           width="9.08"
           height="11.36"
           id="rect10" /><path
           d="m286.76 278h-4.47a5.68 5.68 0 0 0 0 11.36h4.47z"
           id="path10" /><rect
           x="332.52"
           y="278.04"
           width="9.08"
           height="11.36"
           id="rect11" /></g><g
         fill="none"
         stroke="#737e8c"
         stroke-linecap="round"
         stroke-linejoin="round"
         id="g19"><line
           x1="235.88"
           x2="181.95"
           y1="220.98"
           y2="220.98"
           id="line11" /><line
           x1="235.88"
           x2="206.56"
           y1="276.48"
           y2="276.48"
           id="line12" /><line
           x1="200.8"
           x2="188.76"
           y1="276.48"
           y2="276.48"
           id="line13" /><line
           x1="235.88"
           x2="175.67"
           y1="255.87"
           y2="255.87"
           id="line14" /><line
           x1="235.88"
           x2="219.12"
           y1="245.93"
           y2="245.93"
           id="line15" /><line
           x1="235.88"
           x2="175.67"
           y1="301.26"
           y2="301.26"
           id="line16" /><line
           x1="235.88"
           x2="219.12"
           y1="323.19"
           y2="323.19"
           id="line17" /><line
           x1="199.23"
           x2="145.3"
           y1="230.41"
           y2="230.41"
           id="line18" /><line
           x1="136.93"
           x2="125.41"
           y1="230.41"
           y2="230.41"
           id="line19" /></g><g
         stroke="#263238"
         id="g21"><path
           d="m176.51 331.23a7.51 7.51 0 0 1 6.25-9c7.8-1.76 9 7.61 9.17 9.95z"
           fill="#c65370"
           stroke-linecap="round"
           stroke-linejoin="round"
           id="path19" /><path
           d="m191.34 326.55h-7.22v1.95l7.81 3.71a10.77 10.77 0 0 0-0.59-5.66z"
           fill="#263238"
           stroke-miterlimit="10"
           id="path20" /><path
           d="m71.35 311.33v35.9s13.26 4.29 23.6 8.59a237 237 0 0 1 21.47 10.53h116.68s-11.32 0.39-13.27-1.36-1.56-5.66 1.95-8 23.61-3.12 23.61-3.12 71.41-3.91 71.8-5.08 0.39-2.14-1.36-2.73-31-9.17-52.88-12.1-41.17-1.75-45.66-0.39-16.39-0.39-24.58-1.95a129.7 129.7 0 0 0-15.22-1.95v-7.22h-7.22v-2.14h2.93v-10.15a45.68 45.68 0 0 0-18.74 1.76c-10 3.12-20.48 13.65-28.29 18.14s-16.58 6.83-20.87 6.83a21.2 21.2 0 0 1-7.22-1.17v-7.8l3.7-3.91v-14.63h-18.34s-0.19 3.51-3.31 3.71-8.78-1.76-8.78-1.76z"
           fill="#fff"
           stroke-miterlimit="10"
           id="path21" /></g><g
         fill="#c65370"
         stroke="#263238"
         stroke-linecap="round"
         stroke-linejoin="round"
         id="g23"><path
           d="m98.08 328.17v-0.25l3.7-3.91v-14.63h-18.34s-0.19 3.51-3.31 3.71-8.78-1.76-8.78-1.76v33.75c4.18-5.08 12.06-11.64 26.73-16.91z"
           id="path22" /><polygon
           points="137.67 366.35 148.35 366.35 134.95 351.12 125.33 351.12"
           id="polygon22" /><polygon
           points="153.76 366.35 164.44 366.35 151.04 351.12 141.43 351.12"
           id="polygon23" /><path
           d="m200.37 360.64c-8.63-2.16-13.49-9.18-17.27-16.2s-12.69-14-15.66-13.76-9.71 1.35-9.71 1.35-2.43-1.08-11.88-6.75a35.63 35.63 0 0 0-8-3.54 138.29 138.29 0 0 1-11.31 8.12q2.76 0.06 6.38 0.28c8.91 0.54 11.61 5.4 11.61 5.4a33.85 33.85 0 0 1 5.94-0.54c3.24 0 13.22 8.36 15.65 17 1.56 5.55 6.69 11.1 10.15 14.35h47.63c-8.37-2.01-18.75-4.52-23.53-5.71z"
           id="path23" /></g><g
         fill="#263238"
         id="g25"><path
           d="m233.1 366.35h-5.19c2.78 0.09 5.19 0 5.19 0z"
           stroke="#263238"
           stroke-miterlimit="10"
           id="path24" /><path
           d="m221.78 357c3.51-2.34 23.61-3.12 23.61-3.12s25.59-1.4 46.22-2.78c-13.05-0.69-51.77-2.58-60.66-1.13-10.73 1.76-31.61 6.25-43.32 11.32s-26.53 0.2-54.82-3.12c-20-2.35-37-4.31-45.25-5.25 2.49 0.93 5 1.92 7.39 2.91a237 237 0 0 1 21.47 10.53h111.49c-3.25-0.09-7-0.42-8.08-1.36-1.95-1.77-1.56-5.67 1.95-8z"
           stroke="#263238"
           stroke-miterlimit="10"
           id="path25" /><circle
           cx="264.65"
           cy="349.09"
           r="19.41"
           id="circle25" /></g><g
         fill="#fff"
         opacity=".31"
         id="g27"><path
           d="m280.78 338.28-16.38 10.36 19.29-3.38a19.28 19.28 0 0 0-2.91-6.98z"
           id="path26" /><path
           d="m247.88 358.85 16.77-9.76-19.23 2.64a19.09 19.09 0 0 0 2.46 7.12z"
           id="path27" /></g><path
         d="m246.87 356.87 9.89-5.06-10.94 2a18.71 18.71 0 0 0 1.05 3.06z"
         fill="#fff"
         id="path28" /><path
         d="m272.18 345.63 11-2.32a19.35 19.35 0 0 0-1.35-3.25z"
         fill="#fff"
         id="path29" /><circle
         cx="264.65"
         cy="349.09"
         r="11.41"
         fill="#c65370"
         stroke="#263238"
         stroke-linecap="round"
         stroke-linejoin="round"
         id="circle29" /><circle
         cx="264.65"
         cy="349.09"
         r="3.02"
         fill="#263238"
         id="circle30" /><g
         stroke="#263238"
         id="g37"><g
           stroke-miterlimit="10"
           id="g31"><polygon
             points="307.83 356.6 304.9 349.96 291.05 351.33 295.53 356.6"
             fill="#263238"
             id="polygon30" /><path
             d="m289.49 356.21v9.56h31.41v-8.2s-7.81-0.58-15.61-1.95-14.05-0.78-15.8 0.59z"
             fill="#fff"
             id="path30" /><path
             d="m221 354.45v9.76h-22.44v-2.73s6.83-1.17 10.34-3.52 5.86-3.7 12.1-3.51z"
             fill="#fff"
             id="path31" /></g><path
           d="m213.19 338.26h-8.78s-3.7 0.78-3.31 4.09 3.12 7 4.68 7h14.22"
           fill="none"
           stroke-linecap="round"
           stroke-linejoin="round"
           id="path32" /><path
           d="m204.41 342c1-4.48 4.3-3.31 4.3-3.31l-0.56-0.39h-3.74s-3.7 0.78-3.31 4.09 3.12 7 4.68 7a9.29 9.29 0 0 1-1.37-7.39z"
           fill="#263238"
           stroke-linecap="round"
           stroke-linejoin="round"
           id="path33" /><g
           stroke-miterlimit="10"
           id="g36"><path
             d="m113.69 344.7c11.12-1.76 32-9.17 32-9.17 14.44-6 31.81-5.86 31.81-5.86"
             fill="none"
             id="path34" /><path
             d="m105.49 349.18s33.76-6.44 60.29-10.92 41.37-2.15 47-3.12 8.78-2.54 13.86-2.74"
             fill="none"
             id="path35" /><path
             d="m171.63 310-1.95-3.13s2.35-1.36-0.58-1.56-6.44 0-6.83 0.78 2.54 0.59 2.54 0.59v3.32z"
             fill="#263238"
             id="path36" /></g></g><circle
         cx="101.49"
         cy="349.09"
         r="19.41"
         fill="#263238"
         id="circle37" /><g
         fill="#fff"
         opacity=".31"
         id="g38"><path
           d="m117.62 338.28-16.38 10.36 19.29-3.38a19.45 19.45 0 0 0-2.91-6.98z"
           id="path37" /><path
           d="m84.72 358.85 16.77-9.76-19.23 2.64a19.09 19.09 0 0 0 2.46 7.12z"
           id="path38" /></g><path
         d="m83.71 356.87 9.89-5.06-10.94 2a18.71 18.71 0 0 0 1.05 3.06z"
         fill="#fff"
         id="path39" /><path
         d="m109 345.63 11-2.32a19.35 19.35 0 0 0-1.35-3.25z"
         fill="#fff"
         id="path40" /><circle
         cx="101.49"
         cy="349.09"
         r="11.41"
         fill="#c65370"
         stroke="#263238"
         stroke-linecap="round"
         stroke-linejoin="round"
         id="circle40" /><circle
         cx="101.49"
         cy="349.09"
         r="3.02"
         fill="#263238"
         id="circle41" /><g
         fill="none"
         stroke="#737e8c"
         stroke-linecap="round"
         stroke-linejoin="round"
         id="g45"><line
           x1="162.24"
           x2="132.92"
           y1="314.84"
           y2="314.84"
           id="line41" /><line
           x1="75.19"
           x2="45.87"
           y1="323.6"
           y2="323.6"
           id="line42" /><line
           x1="75.19"
           x2="58.6"
           y1="335.87"
           y2="335.87"
           id="line43" /><line
           x1="136.54"
           x2="119.95"
           y1="324.77"
           y2="324.77"
           id="line44" /><line
           x1="127.16"
           x2="115.12"
           y1="314.84"
           y2="314.84"
           id="line45" /></g></g></g></svg>
