<?xml version="1.0" encoding="UTF-8" standalone="no"?>
<svg
   width="120"
   height="30"
   version="1.1"
   viewBox="0 0 31.75 7.93725"
   xml:space="preserve"
   id="svg5"
   sodipodi:docname="tb.svg"
   inkscape:version="1.3 (1:1.3+202307231459+0e150ed6c4)"
   xmlns:inkscape="http://www.inkscape.org/namespaces/inkscape"
   xmlns:sodipodi="http://sodipodi.sourceforge.net/DTD/sodipodi-0.dtd"
   xmlns="http://www.w3.org/2000/svg"
   xmlns:svg="http://www.w3.org/2000/svg"><defs
     id="defs5" /><sodipodi:namedview
     id="namedview5"
     pagecolor="#ffffff"
     bordercolor="#000000"
     borderopacity="0.25"
     inkscape:showpageshadow="2"
     inkscape:pageopacity="0.0"
     inkscape:pagecheckerboard="0"
     inkscape:deskcolor="#d1d1d1"
     inkscape:zoom="1.9666667"
     inkscape:cx="88.983049"
     inkscape:cy="19.830508"
     inkscape:window-width="1280"
     inkscape:window-height="656"
     inkscape:window-x="0"
     inkscape:window-y="27"
     inkscape:window-maximized="1"
     inkscape:current-layer="svg5" /><g
     id="g1"
     transform="matrix(0.750003,0,0,0.750003,0,-0.03029714)"><path
       d="m 10.208293,1.2038047 -4.7749814,1.6166602 -0.05,4.7999808 4.8083144,1.5499938 C 10.441625,8.7621078 10.583291,8.2871097 10.583291,7.7787784 V 2.5621326 c 0,-0.499998 -0.133333,-0.9583295 -0.366665,-1.3583279 z"
       id="path1"
       style="fill:#808080;stroke-width:0.83333" /><path
       d="m 9.0666304,0.1454756 -5.2999788,1.7999928 0.025,6.7749729 5.0666464,1.5666607 a 2.6833226,2.6833226 0 0 0 1.333328,-1.1166625 l -4.8083142,-1.5499938 0.05,-4.7999808 4.7749812,-1.6166602 C 9.9416269,0.7454732 9.5416285,0.378808 9.0666304,0.1454756 Z"
       fill="#ffffff"
       id="path2"
       style="stroke-width:0.83333" /><path
       d="M 2.6833226,-0.12119 A 2.6833226,2.6833226 0 0 0 0,2.5621326 v 5.2166458 a 2.6833226,2.6833226 0 0 0 2.6833226,2.6833226 h 5.2166458 c 0.333332,0 0.666664,-0.06667 0.9583295,-0.174999 L 3.7916515,8.712108 3.7666516,1.9371351 9.0666304,0.1454756 A 2.666656,2.666656 0 0 0 7.8999684,-0.12119 Z"
       id="path3"
       style="fill:#808080;stroke-width:0.83333" /></g><path
     d="M 11.663557,-1.245e-4 V 3.7040409 H 10.986834 V -1.245e-4 Z m 0.933672,0 V 0.5697471 H 10.068425 V -1.245e-4 Z m 2.902784,1.5213537 V 2.0885567 H 13.960851 V 1.5212292 Z M 14.138936,-1.245e-4 v 3.7041654 h -0.68181 V -1.245e-4 Z m 1.872436,0 V 3.7040409 H 15.334649 V -1.245e-4 Z m 1.841905,0 V 3.7040409 H 17.176554 V -1.245e-4 Z m 0.79375,0 h 1.152464 q 0.368891,0 0.628385,0.12720349 0.259495,0.12720348 0.394331,0.3765223 0.13738,0.24931879 0.13738,0.61312081 0,0.290024 -0.08395,0.5037258 -0.08141,0.2111579 -0.234054,0.3536257 -0.1501,0.1424679 -0.363801,0.221334 l -0.206071,0.1170273 h -0.954025 l -0.0026,-0.5673275 h 0.66909 q 0.165365,0 0.27476,-0.073778 0.111941,-0.073778 0.165364,-0.2035255 0.05596,-0.1322916 0.05596,-0.3027443 0,-0.18571724 -0.05088,-0.31800884 -0.04834,-0.13483563 -0.155189,-0.20606958 -0.104312,-0.071234 -0.274758,-0.071234 H 19.328838 V 3.7040409 h -0.681811 z m 1.704527,3.7041654 -0.694532,-1.6587333 h 0.714884 l 0.707252,1.6231163 v 0.035617 z m 2.541525,0 h -0.648737 l 0.0051,-0.5673275 h 0.643642 q 0.282393,0 0.445214,-0.1017625 0.165363,-0.1043069 0.234054,-0.3230968 0.07124,-0.21879 0.07124,-0.5647834 V 1.5543021 q 0,-0.2645833 -0.03816,-0.4503004 -0.03818,-0.18826114 -0.124677,-0.30528844 -0.0865,-0.1170271 -0.226423,-0.17299663 -0.139923,-0.0559695 -0.345992,-0.0559695 H 22.231622 V -1.245e-4 h 0.676721 q 0.320554,0 0.580048,0.10430687 0.259496,0.10176283 0.445213,0.3002002 0.188261,0.19843742 0.287479,0.49100539 0.09923,0.29002404 0.09923,0.66400234 v 0.5876801 q 0,0.3739781 -0.09923,0.6640021 -0.09921,0.2900239 -0.287479,0.4884612 -0.185717,0.1984375 -0.450301,0.3027444 -0.262039,0.1017625 -0.590224,0.1017628 z M 22.636128,-1.245e-4 V 3.7040409 H 21.954317 V -1.245e-4 Z"
     id="text5"
     style="font-size:7.05556px;font-family:Roboto;-inkscape-font-specification:'Roboto, @wght=600';font-variation-settings:'wght' 600;fill:#808080;stroke:#f5f5f5;stroke-width:0;stroke-linecap:round;stroke-linejoin:round;stroke-miterlimit:50"
     aria-label="THIRD" /><path
     d="m 11.668393,6.331271 h -0.718647 l -0.0024,-0.4774904 h 0.624596 q 0.144694,0 0.241157,-0.053054 0.09887,-0.055466 0.147105,-0.1591635 0.05064,-0.1036974 0.05064,-0.2532146 0,-0.1688097 -0.04582,-0.2700955 -0.04341,-0.1036974 -0.13987,-0.1519288 -0.09646,-0.048231 -0.250803,-0.048231 h -0.417202 v 2.9710513 h -0.6463 V 4.3779014 h 1.063502 q 0.253214,0 0.453374,0.057878 0.202572,0.055466 0.342443,0.1736329 0.139871,0.1181668 0.212218,0.2990343 0.07476,0.178456 0.07476,0.4244359 0,0.217041 -0.08923,0.3979086 -0.08923,0.1808676 -0.272507,0.2966228 -0.180867,0.1157552 -0.460609,0.1326362 z m -0.02412,1.5578725 H 10.754405 L 11.029323,7.351364 h 0.61495 q 0.149517,0 0.241158,-0.062701 0.09405,-0.062701 0.13987,-0.1736328 0.04582,-0.1133437 0.04582,-0.2604493 0,-0.1591635 -0.041,-0.2773303 -0.03859,-0.1181668 -0.127809,-0.1808675 -0.08682,-0.065112 -0.233922,-0.065112 h -0.598068 l 0.0048,-0.4774904 h 0.745173 l 0.15193,0.1856907 q 0.265273,-0.00241 0.429258,0.1157553 0.163988,0.1181668 0.238746,0.306269 0.07476,0.1856907 0.07476,0.4003202 0,0.3352079 -0.125401,0.5643066 -0.125401,0.229099 -0.364147,0.347266 -0.238744,0.115755 -0.581187,0.115755 z m 1.622989,-3.5112421 h 1.09244 q 0.349677,0 0.595657,0.1205784 0.24598,0.1205783 0.373793,0.3569119 0.130225,0.2363336 0.130225,0.5811878 0,0.2749187 -0.07958,0.4774903 -0.07717,0.2001601 -0.221864,0.3352079 -0.142283,0.1350478 -0.344854,0.2098063 l -0.195337,0.1109321 h -0.904338 l -0.0024,-0.5377795 h 0.634242 q 0.156752,0 0.26045,-0.069935 0.106109,-0.069935 0.156752,-0.1929254 0.05305,-0.1254015 0.05305,-0.2869765 0,-0.1760445 -0.04823,-0.301446 -0.04583,-0.1278134 -0.147117,-0.1953373 -0.09887,-0.067524 -0.260449,-0.067524 h -0.44614 v 2.971051 h -0.6463 z m 1.61575,3.5112421 -0.658358,-1.5723419 h 0.67765 l 0.670416,1.5385799 v 0.03376 z m 2.331986,-2.9565816 -0.803052,2.9565816 h -0.680062 l 1.106909,-3.5112421 h 0.424436 z M 17.84924,7.8891435 17.046188,4.9325619 16.990718,4.3779014 h 0.429259 l 1.111732,3.5112421 z M 17.87094,6.582074 V 7.1198535 H 16.260017 V 6.582074 Z m 2.675672,0.1495172 h 0.643889 q -0.01688,0.3882623 -0.159164,0.6583583 -0.139871,0.267684 -0.402732,0.407554 -0.260449,0.139871 -0.634242,0.139871 -0.284565,0 -0.508841,-0.09887 -0.224275,-0.101286 -0.381027,-0.2918 -0.154337,-0.190517 -0.23633,-0.4678476 -0.07958,-0.2797419 -0.07958,-0.6390654 V 5.829665 q 0,-0.3593236 0.08441,-0.6390654 0.08441,-0.2797418 0.241157,-0.4726672 0.159163,-0.1929254 0.385851,-0.2917997 0.226687,-0.098874 0.511252,-0.098874 0.376205,0 0.629419,0.1422825 0.253215,0.1422824 0.390674,0.4172011 0.137459,0.2725071 0.161575,0.6655926 h -0.64389 q -0.0096,-0.2556261 -0.0627,-0.4051433 -0.05305,-0.1519288 -0.166398,-0.2170411 -0.113344,-0.065112 -0.308681,-0.065112 -0.151929,0 -0.262861,0.055466 -0.110932,0.055466 -0.180867,0.1736328 -0.06994,0.1157552 -0.103698,0.2966228 -0.03376,0.1808676 -0.03376,0.4340821 v 0.6149493 q 0,0.2435683 0.02894,0.4244359 0.02894,0.1808675 0.09164,0.3014459 0.06511,0.1181668 0.173633,0.178456 0.10852,0.057877 0.270095,0.057877 0.195337,0 0.311092,-0.057877 0.115756,-0.060289 0.171222,-0.2049833 0.05788,-0.1471056 0.06994,-0.4075548 z m 1.765267,-2.3536898 v 3.5112421 h -0.6463 V 4.3779014 Z m 1.748386,0 L 22.905124,6.0973489 22.20577,6.9631016 22.085191,6.3023322 22.550624,5.5668041 23.276506,4.3779014 Z M 23.32956,7.8891435 22.502392,6.2541008 22.963002,5.8151956 24.094027,7.8891435 Z M 26.372963,7.351364 V 7.8891435 H 24.848852 V 7.351364 Z m -1.33842,-2.9734626 v 3.5112421 h -0.6463 V 4.3779014 Z m 1.133436,1.4421173 V 6.3433288 H 24.848852 V 5.8200187 Z M 26.363316,4.3779014 V 4.9180925 H 24.848852 V 4.3779014 Z m 1.840026,0 V 7.8891435 H 27.561865 V 4.3779014 Z m 0.885046,0 V 4.9180925 H 26.691289 V 4.3779014 Z"
     id="text5-8"
     style="font-size:4.93889px;font-family:Roboto;-inkscape-font-specification:'Roboto, @wght=600,wdth=75.0';font-variation-settings:'wdth' 75, 'wght' 600;stroke:#f5f5f5;stroke-width:0;stroke-linecap:round;stroke-linejoin:round;stroke-miterlimit:50"
     aria-label="BRACKET" /></svg>
