<svg width="120" height="40" version="1.1" viewBox="0 0 31.75 10.583" xml:space="preserve" xmlns="http://www.w3.org/2000/svg"><g transform="matrix(.83333 0 0 .83333 0 -.12119)"><path d="m12.25 1.59-5.73 1.94-0.06 5.76 5.77 1.86c0.3-0.49 0.47-1.06 0.47-1.67v-6.26c0-0.6-0.16-1.15-0.44-1.63z"/><path d="m10.88 0.32-6.36 2.16 0.03 8.13 6.08 1.88a3.22 3.22 0 0 0 1.6-1.34l-5.77-1.86 0.06-5.76 5.73-1.94c-0.32-0.55-0.8-0.99-1.37-1.27z" fill="#fff"/><path d="m3.22 0a3.22 3.22 0 0 0-3.22 3.22v6.26a3.22 3.22 0 0 0 3.22 3.22h6.26c0.4 0 0.8-0.08 1.15-0.21l-6.08-1.89-0.03-8.13 6.36-2.15a3.2 3.2 0 0 0-1.4-0.32z"/></g><path d="m13.784 0.9333v4.5145h-0.82476v-4.5145zm1.1379 0v0.69453h-3.082v-0.69453zm3.5378 1.8542v0.69143h-1.8759v-0.69143zm-1.6588-1.8542v4.5145h-0.83096v-4.5145zm2.282 0v4.5145h-0.82476v-4.5145zm2.2448 0v4.5145h-0.82476v-4.5145zm0.96738 0h1.4046q0.44958 0 0.76584 0.15503 0.31626 0.15503 0.48059 0.45889 0.16743 0.30386 0.16743 0.74724 0 0.35347-0.10232 0.61392-0.09922 0.25735-0.28525 0.43098-0.18293 0.17363-0.44338 0.26975l-0.25115 0.14263h-1.1627l-0.0031-0.69143h0.81545q0.20154 0 0.33486-0.089917 0.13643-0.089917 0.20154-0.24805 0.06821-0.16123 0.06821-0.36897 0-0.22634-0.06201-0.38757-0.05891-0.16433-0.18914-0.25115-0.12712-0.086816-0.33486-0.086816h-0.57361v3.8199h-0.83096zm2.0774 4.5145-0.84646-2.0216h0.87126l0.86196 1.9782v0.043408zm3.0975 0h-0.79065l0.0062-0.69143h0.78445q0.34416 0 0.5426-0.12402 0.20154-0.12712 0.28525-0.39377 0.08682-0.26665 0.08682-0.68833v-0.72244q0-0.32246-0.04651-0.5488-0.04651-0.22944-0.15193-0.37207-0.10542-0.14263-0.27595-0.21084-0.17053-0.068213-0.42168-0.068213h-0.82476v-0.69453h0.82476q0.39067 0 0.70693 0.12712 0.31626 0.12402 0.5426 0.36587 0.22944 0.24185 0.35037 0.59841 0.12092 0.35347 0.12092 0.80925v0.71624q0 0.45579-0.12092 0.80925t-0.35037 0.59531q-0.22634 0.24185-0.5488 0.36897-0.31936 0.12402-0.71934 0.12402zm-0.31316-4.5145v4.5145h-0.83096v-4.5145z" stroke-miterlimit="50" stroke-width="0" style="font-variation-settings:'wght' 600" aria-label="THIRD"/><path d="m12.557 8.3333h-0.76998l-0.0026-0.5116h0.66921q0.15503 0 0.25838-0.056844 0.10594-0.059428 0.15761-0.17053 0.05426-0.1111 0.05426-0.2713 0-0.18087-0.04909-0.28939-0.04651-0.1111-0.14986-0.16278-0.10335-0.051677-0.26872-0.051677h-0.44699v3.1833h-0.69246v-3.762h1.1395q0.2713 0 0.48576 0.062012 0.21704 0.059428 0.3669 0.18604 0.14986 0.12661 0.22738 0.32039 0.0801 0.1912 0.0801 0.45475 0 0.23254-0.0956 0.42633t-0.29197 0.31781q-0.19379 0.12402-0.49351 0.14211zm-0.02584 1.6691h-0.95343l0.29456-0.57619h0.65888q0.1602 0 0.25838-0.067179 0.10077-0.067179 0.14986-0.18604 0.04909-0.12144 0.04909-0.27905 0-0.17053-0.04392-0.29714-0.04134-0.12661-0.13694-0.19379-0.09302-0.069763-0.25063-0.069763h-0.64079l0.0052-0.5116h0.7984l0.16278 0.19895q0.28422-0.00258 0.45992 0.12402 0.1757 0.12661 0.2558 0.32815 0.0801 0.19895 0.0801 0.42891 0 0.35915-0.13436 0.60461-0.13439 0.24546-0.39019 0.37207-0.2558 0.12402-0.6227 0.12402zm1.7389-3.762h1.1705q0.37466 0 0.6382 0.12919 0.26355 0.12919 0.40049 0.38241 0.13953 0.25321 0.13953 0.6227 0 0.29456-0.08527 0.5116-0.08268 0.21446-0.23771 0.35915-0.15245 0.14469-0.36949 0.22479l-0.20929 0.11886h-0.96893l-0.0026-0.57619h0.67954q0.16795 0 0.27905-0.074931 0.11369-0.074931 0.16795-0.20671 0.05684-0.13436 0.05684-0.30748 0-0.18862-0.05168-0.32298-0.049065-0.13694-0.15759-0.20929-0.10594-0.072347-0.27905-0.072347h-0.47801v3.1833h-0.69246zm1.7312 3.762-0.70538-1.6847h0.72605l0.7183 1.6485v0.036174zm2.4986-3.1678-0.86041 3.1678h-0.72864l1.186-3.762h0.45475zm0.67955 3.1678-0.86041-3.1678-0.059427-0.59428h0.45992l1.1911 3.762zm0.023254-1.4004v0.57619h-1.726v-0.57619zm2.8668 0.1602h0.68988q-0.01809 0.416-0.17053 0.70538-0.14986 0.2868-0.4315 0.43667-0.27905 0.14986-0.67954 0.14986-0.30489 0-0.54519-0.10594-0.2403-0.10852-0.40824-0.31264-0.16536-0.20412-0.25322-0.50126-0.085266-0.29972-0.085266-0.68471v-0.65371q0-0.38499 0.09043-0.68471t0.25838-0.50643q0.17053-0.20671 0.41341-0.31264 0.24288-0.10594 0.54777-0.10594 0.40308 0 0.67438 0.15245 0.2713 0.15245 0.41858 0.447 0.14728 0.29197 0.17312 0.71314h-0.68988q-0.01033-0.27389-0.06718-0.43408-0.05684-0.16278-0.17828-0.23254-0.12144-0.069763-0.33073-0.069763-0.16278 0-0.28164 0.059428t-0.19379 0.18604q-0.07493 0.12402-0.1111 0.31781-0.03617 0.19379-0.03617 0.46509v0.65887q0 0.26097 0.03101 0.45475t0.09818 0.32298q0.06976 0.12661 0.18604 0.1912 0.11627 0.062012 0.28939 0.062012 0.20929 0 0.33331-0.062012 0.12402-0.064596 0.18345-0.21962 0.06201-0.15761 0.07493-0.43667zm1.8914-2.5218v3.762h-0.69246v-3.762zm1.8733 0-1.2377 1.8423-0.74931 0.92759-0.12919-0.70797 0.49868-0.78807 0.77773-1.2738zm-0.7829 3.762-0.88625-1.7518 0.49351-0.47026 1.2118 2.2221zm3.2608-0.57619v0.57619h-1.633v-0.57619zm-1.434-3.1859v3.762h-0.69246v-3.762zm1.2144 1.5451v0.56069h-1.4134v-0.56069zm0.20929-1.5451v0.57878h-1.6226v-0.57878zm1.9715 0v3.762h-0.6873v-3.762zm0.94826 0v0.57878h-2.5683v-0.57878z" stroke-miterlimit="50" stroke-width="0" style="font-variation-settings:'wdth' 75, 'wght' 600" aria-label="BRACKET"/></svg>
