<svg width="600" height="350" version="1.1" viewBox="0 0 158.75 92.604" xmlns="http://www.w3.org/2000/svg" xmlns:xlink="http://www.w3.org/1999/xlink"><defs><linearGradient id="e"><stop stop-color="#d2798f" offset="0"/><stop stop-color="#ffceda" offset="1"/></linearGradient><radialGradient id="b" cx="-886.04" cy="354.3" r="19.413" gradientTransform="matrix(.99493 0 0 .59642 133.17 142.61)" gradientUnits="userSpaceOnUse"><stop stop-color="#ffc7d5" offset="0"/><stop stop-color="#ffc8d5" offset=".17397"/><stop stop-color="#ffc2d1" offset=".41884"/><stop stop-color="#ffbdcd" offset=".63834"/><stop stop-color="#ffb8c9" offset=".85857"/><stop stop-color="#ffb3c5" offset="1"/></radialGradient><linearGradient id="a" x1="-767.73" x2="-766.93" y1="366.72" y2="366.72" gradientTransform="matrix(2.0549 0 0 1.3333 2306.7 -122.82)" gradientUnits="userSpaceOnUse" xlink:href="#c"/><linearGradient id="c"><stop stop-color="#ad6c83" offset="0"/><stop stop-color="#a66778" stop-opacity="0" offset="1"/></linearGradient><linearGradient id="d" x1="39.406" x2="319.27" y1="201.47" y2="201.47" gradientUnits="userSpaceOnUse" xlink:href="#e"/></defs><g transform="matrix(1.5385 0 0 1.5385 -396.98 1963.4)"><g transform="matrix(.17224 0 0 .17224 258.28 -1276.2)" fill-opacity="0" stroke="#8c95a1" stroke-linejoin="round" stroke-miterlimit="20"><rect transform="scale(1,-1)" x="29.195" y="-322.16" width="537.94" height="294.33" ry="18.963" opacity=".4" stroke-dasharray="5.47955, 0.913258" stroke-linecap="round" stroke-width="1.1414" style="font-variation-settings:'wght' 700;paint-order:markers fill stroke"/><rect transform="matrix(.99996 0 0 .99996 -1.8306 .00017628)" x=".99548" y=".9955" width="598.01" height="348.01" opacity=".5" stroke-dasharray="1.09504, 26.281" stroke-linecap="square" stroke-width="1.095" style="font-variation-settings:'wght' 700;paint-order:markers fill stroke"/><rect x="101.53" y="92.052" width="181.83" height="113.39" opacity=".4" stroke-dasharray="1.9, 22.8" stroke-linecap="square" stroke-width="1.8141" style="font-variation-settings:'wght' 700;paint-order:markers fill stroke"/></g><g transform="matrix(.075574 0 0 .075574 262.59 -1258.5)" fill="url(#d)"><path d="m179.34 61.47c-37.396 0-72.553 14.562-98.996 41.004-54.584 54.585-54.584 143.4 0 197.99 26.443 26.442 61.6 41.004 98.996 41.004s72.553-14.561 98.995-41.004c54.584-54.587 54.584-143.4 0-197.99-26.442-26.443-61.6-41.004-98.995-41.004zm77.782 217.78c-20.776 20.775-48.4 32.217-77.782 32.217-29.383 0-57.007-11.441-77.782-32.217-42.889-42.89-42.889-112.68-1e-3 -155.56 20.776-20.775 48.4-32.217 77.783-32.217 29.382 0 57.006 11.441 77.782 32.217 42.889 42.888 42.888 112.67 0 155.56z"/><path d="m237.21 136.59c-22.619 16.857-49.848 37.341-58.857 44.921-4.787 0.234-9.506 2.156-13.161 5.812-7.811 7.811-7.811 20.475 0 28.285 7.811 7.811 20.475 7.811 28.284 0 3.656-3.655 5.578-8.375 5.812-13.161 7.578-9.008 28.063-36.238 44.921-58.859 1.482-1.99 1.281-4.768-0.475-6.522-1.756-1.759-4.534-1.959-6.524-0.476z"/></g><g transform="matrix(.8 0 0 .8 115.94 -305.9)"><g transform="matrix(.079662 0 0 .079662 184.6 -1215.8)"><rect x="609" y="273" width="108" height="360" rx="4" fill="#d2798f"/><path transform="translate(647,288)" d="m6 0h20a6 6 0 0 1 6 6v4a6 6 0 0 1-6 6h-20a6 6 0 0 1-6-6v-4a6 6 0 0 1 6-6z" fill="#fff"/><path transform="translate(623,601)" d="m4 0h72a4 4 0 0 1 4 4v8a4 4 0 0 1-4 4h-72a4 4 0 0 1-4-4v-8a4 4 0 0 1 4-4z" fill="#fff"/><path transform="translate(750,273)" d="m4 0h72a4 4 0 0 1 4 4v8a4 4 0 0 1-4 4h-72a4 4 0 0 1-4-4v-8a4 4 0 0 1 4-4z" fill="#f2f2f2"/><rect transform="translate(750,311)" width="160" height="88" rx="8" fill="#d2798f"/><rect transform="translate(623,320)" width="80" height="16" rx="8" fill="#fff"/><rect transform="translate(750,567)" width="528" height="66" rx="16" fill="#e0e3e6"/><path transform="translate(1198,273)" d="m4 0h72a4 4 0 0 1 4 4v8a4 4 0 0 1-4 4h-72a4 4 0 0 1-4-4v-8a4 4 0 0 1 4-4z" fill="#c65370"/><g fill="#fff"><rect transform="translate(623,344)" width="80" height="16" rx="8" opacity=".149"/><rect transform="translate(623,368)" width="80" height="16" rx="8" opacity=".149"/><rect transform="translate(623,392)" width="80" height="16" rx="8" opacity=".149"/><rect transform="translate(623,416)" width="80" height="16" rx="8" opacity=".149"/></g><rect transform="translate(1118,311)" width="160" height="88" rx="8" fill="#d2798f"/><rect transform="translate(934,311)" width="160" height="88" rx="8" fill="#d2798f"/><rect transform="translate(750,489)" width="528" height="66" rx="16" fill="#e0e3e6"/><rect transform="translate(750,411)" width="528" height="66" rx="16" fill="#e0e3e6"/></g><g transform="matrix(.39776 0 0 .39776 612.25 -1289.9)" stroke-miterlimit="20"><g transform="translate(-965.54 -.050799)" fill-opacity="0"><path d="m1.5308 230.62c-1.5421 0-2.8248 0.99938-3.256 2.3727v90.709h162.2v-90.709c-0.43123-1.3733-1.7138-2.3727-3.256-2.3727z" stroke="#e8e9eb" stroke-width="3.9688" style="font-variation-settings:'wght' 700;paint-order:fill markers stroke"/><path d="m0.33659 232.74h158.08v89.021h-158.08z" stroke="#393a3c" stroke-width=".15875" style="font-variation-settings:'wght' 700;paint-order:fill markers stroke"/></g><g stroke-width="0"><path d="m-969.13 325.63v13.666c0 1.9416 1.5643 3.5047 3.5073 3.5047h159.5c1.4055 0 2.6035-0.8239 3.1639-2.0112v-15.16z" fill="#ffceda" style="font-variation-settings:'wght' 700;paint-order:markers fill stroke"/><g transform="translate(-137.63 .46065)"><rect x="-767.7" y="342.34" width="38.629" height="23.156" fill="url(#b)" style="font-variation-settings:'wght' 700;paint-order:fill markers stroke"/><g transform="translate(0 .52917)"><path d="m-767.73 365.62v1.1171c0 0.15874 0.36365 0.2865 0.81534 0.2865h37.078c0.32673 0 0.60522-0.067 0.73552-0.16442v-1.2392z" fill="#ffc3d1" style="font-variation-settings:'wght' 700;paint-order:markers fill stroke"/><rect transform="rotate(-90)" x="-367.2" y="-733.42" width=".29951" height="4.1813" ry="1.0345" fill="#a66778" style="font-variation-settings:'wght' 700;paint-order:fill markers stroke"/><rect transform="scale(-1,1)" x="729.08" y="365.09" width="1.6311" height="2.1167" ry=".52368" fill="url(#a)" style="font-variation-settings:'wght' 700;paint-order:fill markers stroke"/><g transform="matrix(-1 0 0 1 -1496.8 0)"><rect transform="rotate(-90)" x="-367.2" y="-733.42" width=".29951" height="4.1813" ry="1.0345" fill="#a66778" style="font-variation-settings:'wght' 700;paint-order:fill markers stroke"/><rect transform="scale(-1,1)" x="729.08" y="365.09" width="1.6311" height="2.1167" ry=".52368" fill="url(#a)" style="font-variation-settings:'wght' 700;paint-order:fill markers stroke"/></g><rect x="-767.73" y="365.09" width="38.629" height=".53065" fill="#a66778" style="font-variation-settings:'wght' 700;paint-order:fill markers stroke"/></g><rect x="-767.73" y="365.18" width="38.629" height=".43944" fill="#ffceda" style="font-variation-settings:'wght' 700;mix-blend-mode:normal;paint-order:fill markers stroke"/></g></g></g></g></g></svg>
