<svg width="600" height="350" version="1.1" viewBox="0 0 158.75 92.604" xml:space="preserve" xmlns="http://www.w3.org/2000/svg" xmlns:xlink="http://www.w3.org/1999/xlink"><defs><radialGradient id="b" cx="-886.04" cy="354.3" r="19.413" gradientTransform="matrix(.99493 0 0 .59642 133.17 142.61)" gradientUnits="userSpaceOnUse"><stop stop-color="#b7bbc2" offset=".41884"/><stop stop-color="#b4b8c0" offset=".63834"/><stop stop-color="#b1b5be" offset=".85857"/><stop stop-color="#aeb2bc" offset=".92928"/><stop stop-color="#abafba" offset="1"/></radialGradient><linearGradient id="a" x1="-767.73" x2="-766.93" y1="366.72" y2="366.72" gradientTransform="matrix(2.0549,0,0,1.3333,2306.7,-122.82)" gradientUnits="userSpaceOnUse"><stop stop-color="#828796" offset="0"/><stop stop-color="#7d8291" stop-opacity="0" offset="1"/></linearGradient><linearGradient id="d" x1="-767.73" x2="-766.93" y1="366.72" y2="366.72" gradientTransform="matrix(2.0549,0,0,1.3333,2306.7,-122.82)" gradientUnits="userSpaceOnUse"><stop stop-color="#828796" offset="0"/><stop stop-color="#7d8291" stop-opacity="0" offset="1"/></linearGradient><linearGradient id="c" x1="-756.28" x2="-755.97" y1="376.04" y2="345.67" gradientUnits="userSpaceOnUse"><stop stop-color="#aeb2bc" offset="0"/><stop stop-color="#e3e5e8" offset="1"/></linearGradient>
	
	
	
	
	
	

		
		
		
		
	
			
			
		
			
			
			
		</defs><g transform="translate(9.7088 -183.49)"><g transform="matrix(.30892 0 0 .30995 -11.616 166.24)">
		
			<path d="m189.39 342.06s-103.14 8.601-132.31-43.631c-29.172-52.232-7.538-93.673 16.532-112.88 24.07-19.212 61.164-11.944 79.234-61.655 18.071-49.711 71.79-75.861 126.12-66.263s71.83 42.352 65.502 81.288-5.281 56.409 35.627 65.556 54.876 96.614-2.87 128.2-118.26 20.795-133.45 16.257c-15.197-4.537-38.522-7.374-54.382-6.873z" fill="#6e7d91"/>
			
		
		<g fill="#f9ebef">
			<polygon transform="translate(-26.887 89.746)" points="117.95 191.29 130.97 191.16 121.26 178.45 135.03 187.45 140.77 171.03 140.42 189.13 158.37 187.18 142.73 195 150.48 211.43 139.24 198.82 132.94 213.84 133.01 198.32 119.67 205.36 130.19 194.44"/>
			<polygon points="184.55 135.3 175.59 133 185.12 132.9 178.01 123.6 188.1 130.18 192.3 118.17 192.04 131.42 205.18 129.99 193.73 135.71 199.4 147.74 191.17 138.5 186.56 149.5 186.61 138.14 176.85 143.29"/>
			<polygon transform="translate(-72.754 44.467)" points="263.14 245.59 277.29 245.45 266.73 231.63 281.71 241.41 287.94 223.57 287.56 243.24 307.07 241.12 290.07 249.62 298.49 267.48 286.28 253.76 279.43 270.09 279.5 253.23 265.01 260.88 276.44 249.02"/>
			<polygon points="237.18 193.58 231.79 192.19 237.53 192.13 233.25 186.54 239.32 190.5 241.84 183.27 241.69 191.24 249.6 190.38 242.71 193.82 246.12 201.06 241.17 195.5 238.39 202.12 238.42 195.28 232.55 198.38"/>
			<polygon transform="translate(44.205 148.47)" points="237.87 89.18 229.92 78.78 241.19 86.139 245.88 72.712 245.6 87.517 260.28 85.92 247.49 92.32 253.82 105.76 244.63 95.437 239.48 107.72 239.53 95.034 228.63 100.79 237.23 91.863 227.22 89.285"/>
		</g>
		<g fill="#f9ebef">
			<path d="m328.54 220.99c0 1.402-1.137 2.539-2.539 2.539-1.403 0-2.54-1.137-2.54-2.539 0-1.403 1.137-2.54 2.54-2.54 1.403 1e-3 2.539 1.138 2.539 2.54z"/>
			<path d="m131.94 236.52c0 1.446-1.173 2.619-2.619 2.619s-2.619-1.173-2.619-2.619 1.172-2.619 2.619-2.619c1.446 0 2.619 1.172 2.619 2.619z"/>
			<circle cx="80.641" cy="201.02" r="1.102"/>
			<path d="m61.636 249.63c0 0.655-0.531 1.186-1.186 1.186s-1.186-0.531-1.186-1.186 0.531-1.186 1.186-1.186c0.655-1e-3 1.186 0.53 1.186 1.186z"/>
			<path d="m177.05 169.31c0 1.598-1.296 2.894-2.894 2.894s-2.894-1.296-2.894-2.894 1.296-2.894 2.894-2.894 2.894 1.295 2.894 2.894z"/>
			<path d="m232.68 140.42c0 0.648-0.525 1.174-1.174 1.174s-1.174-0.525-1.174-1.174c0-0.648 0.525-1.174 1.174-1.174s1.174 0.526 1.174 1.174z"/>
			<path d="m201.77 87.748c0 0.775-0.628 1.403-1.403 1.403s-1.403-0.628-1.403-1.403 0.628-1.403 1.403-1.403c0.775-1e-3 1.403 0.628 1.403 1.403z"/>
			<path d="m293.83 79.81c0 2.41-1.953 4.363-4.363 4.363s-4.363-1.953-4.363-4.363 1.953-4.363 4.363-4.363c2.409 0 4.363 1.953 4.363 4.363z"/>
			<path d="m348.31 260.35c0 2.298-1.863 4.16-4.16 4.16s-4.16-1.863-4.16-4.16 1.863-4.16 4.16-4.16 4.16 1.863 4.16 4.16z"/>
		</g>
	</g><g transform="matrix(.26499 0 0 .26499 -9.325 183.46)" fill-opacity="0" stroke="#8c95a1" stroke-linejoin="round" stroke-miterlimit="20"><rect transform="matrix(.99996 0 0 .99996 -1.8306 .00017628)" x=".99548" y=".9955" width="598.01" height="348.01" opacity=".5" stroke-dasharray="1.09504, 26.281" stroke-linecap="square" stroke-width="1.095" style="font-variation-settings:'wght' 700;paint-order:markers fill stroke"/></g><g transform="matrix(.58287 0 0 .58287 -131.08 92.721)">
				
					
					
						<path d="m388.1 280.85s-21.459-21.62-4.105-49.421c0 0-0.891 8.873 6.711 16.6 7.602 7.726 12.815 15.328 12.815 15.979 0 0-15.149-21.467-5.647-36.392 8.069-12.675 11.294-18.218 11.294-23.383 0 0 5.701 7.444 4.615 19.649s10.771 14.225 16.615 21.991 5.6 24.217-0.974 32.47" fill="none" stroke="#ac3956" stroke-linecap="round" stroke-linejoin="round" stroke-miterlimit="10" stroke-width=".75"/>
				<path d="m394.73 288.88s-40.398-17.741-43.982-48.78c-2.84-24.597 18.257-42.013 27.137-48.182 1.202-0.835 2.769 0.348 2.296 1.733-2.427 7.102-6.655 21.366-4.021 27.951 0 0 0.326-18.247 13.032-31.032 9.394-9.453 13.777-21.576 15.301-29.461 0.505-2.611 3.758-3.544 5.583-1.609 9.328 9.892 28.564 34.185 28.174 65.963 0 0 3.759-8.049 3.956-16.077 0.058-2.361 2.935-3.493 4.625-1.844 5.867 5.719 14.357 16.299 14.229 29.538-0.195 20.198-10.62 49.519-66.33 51.8z" fill="#f7f7f8"/><path d="m435.87 187.82c-0.962-3.368 0.255-5.279-4.95-13.108-5.205-7.828 4.245-11.726 8.716-3.291 4.47 8.435-2.397 21.196-3.766 16.399z" fill="#ac3956"/>
				<path d="m387.64 173.61c-1.329-2.488-2.824-10.652 2.05-11.093 6.509-0.59 1.524 17.782-2.05 11.093z" fill="#ac3956"/>
				
			</g><g transform="matrix(.42712 0 0 .42712 -111.33 184.07)">
			<g fill="#ac3956">
				
					<circle transform="matrix(.7071 -.7071 .7071 .7071 -19.391 257.85)" cx="301.56" cy="152.33" r="54.203"/>
				
					<circle transform="matrix(.9499 -.3125 .3125 .9499 -32.503 101.87)" cx="301.56" cy="152.33" r="47.567"/>
			</g>
			<g fill="none" stroke="#fff" stroke-linecap="round" stroke-linejoin="round" stroke-miterlimit="10" stroke-width=".75">
				
					<line x1="315.03" x2="313.24" y1="113.96" y2="118.98"/>
				
					<line x1="289.49" x2="287.7" y1="185.55" y2="190.57"/>
				
					<line x1="262.89" x2="268.4" y1="138.92" y2="140.88"/>
				
					<line x1="334.48" x2="339.99" y1="164.46" y2="166.42"/>
				
					<line x1="293.67" x2="294.84" y1="112" y2="118.44"/>
				
					<line x1="275.25" x2="278.96" y1="121.68" y2="126.11"/>
				
					<line x1="261.61" x2="267.41" y1="159.9" y2="158.5"/>
				
					<line x1="269.93" x2="274.74" y1="178.57" y2="174.81"/>
				
					<line x1="308.8" x2="307.45" y1="192.43" y2="186.48"/>
				
					<line x1="327.69" x2="323.77" y1="183.47" y2="178.6"/>
				
					<line x1="341.33" x2="334.68" y1="145.25" y2="145.98"/>
				
					<line x1="332.14" x2="327.56" y1="127" y2="130.11"/>
			</g>
			
				
					<path d="m307.63 154.5c-1.197 3.354-4.886 5.104-8.24 3.907s-5.103-4.886-3.907-8.24c1.197-3.354 4.886-5.104 8.24-3.907s5.103 4.886 3.907 8.24z" fill="#fff"/>
				
				<polyline points="329.85 138.92 302 153.07 302.88 130.11" fill="none" stroke="#fff" stroke-linecap="round" stroke-linejoin="round" stroke-miterlimit="10"/>
			
		</g><g transform="matrix(1.3341 0 0 1.3341 -277.77 1793.8)"><g transform="matrix(.079662 0 0 .079662 191.11 -1210)"><rect x="609" y="273" width="108" height="360" rx="4" fill="#ac3956"/><path transform="translate(647,288)" d="m6 0h20a6 6 0 0 1 6 6v4a6 6 0 0 1-6 6h-20a6 6 0 0 1-6-6v-4a6 6 0 0 1 6-6z" fill="#fff"/><path transform="translate(623,601)" d="m4 0h72a4 4 0 0 1 4 4v8a4 4 0 0 1-4 4h-72a4 4 0 0 1-4-4v-8a4 4 0 0 1 4-4z" fill="#fff"/><path transform="translate(750,273)" d="m4 0h72a4 4 0 0 1 4 4v8a4 4 0 0 1-4 4h-72a4 4 0 0 1-4-4v-8a4 4 0 0 1 4-4z" fill="#f2f2f2"/><rect transform="translate(750,311)" width="160" height="88" rx="8" fill="#d3d7de"/><rect transform="translate(623,320)" width="80" height="16" rx="8" fill="#fff"/><rect transform="translate(750,567)" width="528" height="66" rx="16" fill="#e2e5e9"/><path transform="translate(1198,273)" d="m4 0h72a4 4 0 0 1 4 4v8a4 4 0 0 1-4 4h-72a4 4 0 0 1-4-4v-8a4 4 0 0 1 4-4z" fill="#6e7d91"/><g fill="#fff"><rect transform="translate(623,344)" width="80" height="16" rx="8" opacity=".149"/><rect transform="translate(623,368)" width="80" height="16" rx="8" opacity=".149"/><rect transform="translate(623,392)" width="80" height="16" rx="8" opacity=".149"/><rect transform="translate(623,416)" width="80" height="16" rx="8" opacity=".149"/></g><g><rect transform="translate(1118,311)" width="160" height="88" rx="8" fill="#e2e5e9"/><rect transform="translate(934,311)" width="160" height="88" rx="8" fill="#c5cad3"/><rect transform="translate(750,489)" width="528" height="66" rx="16" fill="#d3d7de"/><rect transform="translate(750,411)" width="528" height="66" rx="16" fill="#ac3956"/></g></g><g transform="matrix(.39776 0 0 .39776 618.76 -1284.1)" stroke-miterlimit="20"><g transform="translate(-965.54 -.050799)" fill-opacity="0"><path d="m1.5308 230.62c-1.5421 0-2.8248 0.99938-3.256 2.3727v90.709h162.2v-90.709c-0.43123-1.3733-1.7138-2.3727-3.256-2.3727z" stroke="#dfe2e7" stroke-width="3.9688" style="font-variation-settings:'wght' 700;paint-order:fill markers stroke"/><path d="m0.33659 232.74h158.08v89.021h-158.08z" stroke="#393a3c" stroke-width=".15875" style="font-variation-settings:'wght' 700;paint-order:fill markers stroke"/></g><g stroke-width="0"><path d="m-969.13 325.63v13.666c0 1.9416 1.5643 3.5047 3.5073 3.5047h159.5c1.4055 0 2.6035-0.8239 3.1639-2.0112v-15.16z" fill="#b9bdc6" style="font-variation-settings:'wght' 700;paint-order:markers fill stroke"/><g transform="translate(-137.63 .46065)"><rect x="-767.7" y="342.34" width="38.629" height="23.156" fill="url(#b)" style="font-variation-settings:'wght' 700;paint-order:fill markers stroke"/><g transform="translate(0 .52917)"><path d="m-767.73 365.62v1.1171c0 0.15874 0.36365 0.2865 0.81534 0.2865h37.078c0.32673 0 0.60522-0.067 0.73552-0.16442v-1.2392z" fill="#b7bbc2" style="font-variation-settings:'wght' 700;paint-order:markers fill stroke"/><rect transform="rotate(-90)" x="-367.2" y="-733.42" width=".29951" height="4.1813" ry="1.0345" fill="#73798c" style="font-variation-settings:'wght' 700;paint-order:fill markers stroke"/><rect transform="scale(-1,1)" x="729.08" y="365.09" width="1.6311" height="2.1167" ry=".52368" fill="url(#d)" style="font-variation-settings:'wght' 700;paint-order:fill markers stroke"/><g transform="matrix(-1,0,0,1,-1496.8,0)"><rect transform="rotate(-90)" x="-367.2" y="-733.42" width=".29951" height="4.1813" ry="1.0345" fill="#73798c" style="font-variation-settings:'wght' 700;paint-order:fill markers stroke"/><rect transform="scale(-1,1)" x="729.08" y="365.09" width="1.6311" height="2.1167" ry=".52368" fill="url(#a)" style="font-variation-settings:'wght' 700;paint-order:fill markers stroke"/></g><rect x="-767.73" y="365.09" width="38.629" height=".53065" fill="#73798c" style="font-variation-settings:'wght' 700;paint-order:fill markers stroke"/></g><rect x="-767.73" y="365.18" width="38.629" height=".43944" fill="url(#c)" style="font-variation-settings:'wght' 700;mix-blend-mode:normal;paint-order:fill markers stroke"/></g></g></g></g></g></svg>
