<svg width="16" height="16" fill="none" version="1.1" viewBox="0 0 4 4" xmlns="http://www.w3.org/2000/svg" xmlns:xlink="http://www.w3.org/1999/xlink">
 <defs>
  <linearGradient id="linearGradient29" x1="135.56" x2="54.956" y1="69.655" y2="69.723" gradientUnits="userSpaceOnUse">
   <stop offset="0"/>
   <stop stop-color="#0d0d0d" offset=".48097"/>
   <stop stop-color="#3b3b3b" offset="1"/>
  </linearGradient>
  <linearGradient id="conicGradient" x1=".40676" x2="119.74" y1="66.194" y2="66.194" gradientUnits="userSpaceOnUse">
   <stop offset="0"/>
   <stop stop-color="#0d0d0d" offset=".18503"/>
   <stop stop-color="#3b3b3b" offset="1"/>
  </linearGradient>
 </defs>
 <g transform="matrix(.029527 0 0 .029527 2.0425e-5 -2.4392e-7)" stroke-miterlimit="50" stroke-width="0">
  <path d="m134.91 119.68a20.007 20.007 0 0 0 0.555-4.2184v-95.453a20.007 20.007 0 0 0-0.60926-4.8529l-59.381 20.064-0.67696 65.065z" fill="url(#linearGradient29)" style="font-variation-settings:'wdth' 75, 'wght' 900"/>
  <path d="m120.22 0.58859a20.007 20.007 0 0 0-4.7594-0.58859h-95.453a20.007 20.007 0 0 0-20.007 20.007v95.453a20.007 20.007 0 0 0 20.007 20.007h95.453a20.007 20.007 0 0 0 2.359-0.31057l-64.566-19.899-0.33641-91.899z" fill="url(#conicGradient)" style="font-variation-settings:'wdth' 75, 'wght' 900"/>
  <path d="m120.22 0.58859-67.302 22.77 0.33641 91.899 64.566 19.899a20.007 20.007 0 0 0 17.093-15.478l-60.112-19.395 0.67696-65.065 59.381-20.064a20.007 20.007 0 0 0-14.638-14.566z" fill="#fff" style="font-variation-settings:'wdth' 75, 'wght' 900"/>
 </g>
</svg>
