<svg xmlns="http://www.w3.org/2000/svg" version="1.1" xmlns:xlink="http://www.w3.org/1999/xlink" xmlns:svgjs="http://svgjs.dev/svgjs" width="512" height="512"><svg width="512" height="512" version="1.1" viewBox="0 0 135.47 135.47" xmlns="http://www.w3.org/2000/svg">
 <g stroke-miterlimit="50" stroke-width="0">
  <path d="m134.91 119.68a20.007 20.007 0 0 0 0.555-4.2184v-95.453a20.007 20.007 0 0 0-0.60926-4.8529l-59.381 20.064-0.67696 65.065z" style="font-variation-settings:'wdth' 75, 'wght' 900"></path>
  <path d="m120.22 0.58859a20.007 20.007 0 0 0-4.7594-0.58859h-95.453a20.007 20.007 0 0 0-20.007 20.007v95.453a20.007 20.007 0 0 0 20.007 20.007h95.453a20.007 20.007 0 0 0 2.359-0.31057l-64.566-19.899-0.33641-91.899z" style="font-variation-settings:'wdth' 75, 'wght' 900"></path>
  <path d="m120.22 0.58859-67.302 22.77 0.33641 91.899 64.566 19.899a20.007 20.007 0 0 0 17.093-15.478l-60.112-19.395 0.67696-65.065 59.381-20.064a20.007 20.007 0 0 0-14.638-14.566z" fill="#fff" style="font-variation-settings:'wdth' 75, 'wght' 900"></path>
 </g>
</svg><style>@media (prefers-color-scheme: light) { :root { filter: none; } }
@media (prefers-color-scheme: dark) { :root { filter: none; } }
</style></svg>