<svg xmlns="http://www.w3.org/2000/svg" version="1.1" xmlns:xlink="http://www.w3.org/1999/xlink" xmlns:svgjs="http://svgjs.dev/svgjs" width="512" height="512"><svg width="512" height="512" version="1.1" viewBox="0 0 135.42 135.42" xml:space="preserve" xmlns="http://www.w3.org/2000/svg" xmlns:xlink="http://www.w3.org/1999/xlink"><path transform="scale(.2801)" d="m466.54 60.487-218.26 73.746-2.2814 219.31 219.67 70.876c11.225-18.495 17.807-40.123 17.807-63.34v-238.68c0-22.62-6.2433-43.735-16.94-61.914z" stroke-width="0"></path><path transform="scale(.2801)" d="m414.37 12.339-242.13 81.916 1.1343 309.76 231.36 71.304c25.546-9.771 46.922-27.813 60.935-50.902l-219.67-70.876 2.2814-219.31 218.26-73.746c-12.226-20.777-30.374-37.574-52.169-48.148z" fill="#fff"></path><path transform="scale(.2801)" d="m122.4 0c-67.601 0-122.4 54.799-122.4 122.4v238.68c0 67.602 54.8 122.4 122.4 122.4h238.68c15.403 0 30.082-2.9664 43.659-8.1593l-231.36-71.304-1.1343-309.76 242.13-81.916c-16.128-7.8248-34.162-12.339-53.292-12.339h-238.68z" stroke-width="0"></path></svg><style>@media (prefers-color-scheme: light) { :root { filter: none; } }
@media (prefers-color-scheme: dark) { :root { filter: none; } }
</style></svg>